<svg xmlns="http://www.w3.org/2000/svg" width="257.933" height="143.338" viewBox="0 0 257.933 143.338">
  <g id="surface1" transform="translate(-19.002 -30.521)">
    <path id="Path_2" data-name="Path 2" d="M34.82,173.789S3.129,139.656,29.461,102.7c23.363-32.789,50.6-30.547,70.586-17.242,8.512,5.668,33.051.7,53.937-32.664,28.481-45.5,127.215-17.906,109.215,52.1-8.711,33.875,26.512,35.109,8.563,68.968l-236.942-.07" fill="#ebf3fa"/>
    <path id="Path_3" data-name="Path 3" d="M197.184,173.465H140.617a3.236,3.236,0,0,1-3.222-3.235V56.75a3.238,3.238,0,0,1,3.222-3.234h56.567a3.238,3.238,0,0,1,3.222,3.234V170.23a3.236,3.236,0,0,1-3.222,3.235" fill="#78acea"/>
    <path id="Path_4" data-name="Path 4" d="M203.738,56.754v113.48a3.238,3.238,0,0,1-3.226,3.231H143.949a3.238,3.238,0,0,1-3.226-3.231V56.754a3.242,3.242,0,0,1,3.226-3.238h56.563a3.242,3.242,0,0,1,3.226,3.238" fill="#afcdfb"/>
    <path id="Path_5" data-name="Path 5" d="M181.465,58.059H165.086a.641.641,0,0,1,0-1.281h16.379a.641.641,0,0,1,0,1.281" fill="#8fb5ef"/>
    <path id="Path_6" data-name="Path 6" d="M162.176,58.059a.641.641,0,1,1,.637-.641.64.64,0,0,1-.637.641" fill="#8fb5ef"/>
    <path id="Path_7" data-name="Path 7" d="M177.121,166.84a4.1,4.1,0,1,1-4.109-4.125,4.108,4.108,0,0,1,4.109,4.125" fill="#95c0f4"/>
    <path id="Path_8" data-name="Path 8" d="M144.5,160.688h55.879V60.906H144.5Zm0,0" fill="#95c0f4"/>
    <path id="Path_9" data-name="Path 9" d="M175.93,169.742a4.117,4.117,0,1,1-5.121-6.383,9.237,9.237,0,0,0,5.121,6.383" fill="#8cbaf1"/>
    <path id="Path_10" data-name="Path 10" d="M199.57,108.277h-52a.95.95,0,0,1-.8-1.043V73.879a.951.951,0,0,1,.8-1.043h52a.948.948,0,0,1,.8,1.043v33.355a.947.947,0,0,1-.8,1.043" fill="#7baeeb"/>
    <path id="Path_11" data-name="Path 11" d="M140.723,148.8h-1.094c-.348,0-.629-.473-.629-1.043V114.4c0-.574.281-1.047.629-1.047h1.094V148.8" fill="#78acea"/>
    <path id="Path_12" data-name="Path 12" d="M140.723,148.8H144.5V113.355h-3.773Zm0,0" fill="#7dafec"/>
    <path id="Path_13" data-name="Path 13" d="M180.172,148.8H144.5V113.355h35.676c.344,0,.625.473.625,1.047v33.356c0,.57-.281,1.043-.625,1.043" fill="#7baeeb"/>
    <path id="Path_14" data-name="Path 14" d="M219.34,70.875V104.23a1.044,1.044,0,0,1-1.039,1.043H150.969a1.043,1.043,0,0,1-1.039-1.043V70.875a1.044,1.044,0,0,1,1.039-1.043H218.3a1.045,1.045,0,0,1,1.039,1.043" fill="#fcecdb"/>
    <path id="Path_15" data-name="Path 15" d="M219.34,70.875V104.23a1.138,1.138,0,0,1-1.211,1.043h-33.5V69.832h33.5a1.138,1.138,0,0,1,1.211,1.043" fill="#f99746"/>
    <path id="Path_16" data-name="Path 16" d="M201.078,82.777H189.227a.756.756,0,0,1,0-1.512h11.851a.756.756,0,0,1,0,1.512" fill="#fcecdb"/>
    <path id="Path_17" data-name="Path 17" d="M198.148,85.051h-9.011a.667.667,0,0,1-.664-.668V84.2a.667.667,0,0,1,.664-.668h9.011a.667.667,0,0,1,.665.668v.18a.667.667,0,0,1-.665.668" fill="#fcecdb"/>
    <path id="Path_18" data-name="Path 18" d="M191.313,74.555a.964.964,0,0,0-.817-.453.974.974,0,0,0-.82.453,1.881,1.881,0,0,0-.321,1.121,1.924,1.924,0,0,0,.317,1.129.981.981,0,0,0,.824.445.965.965,0,0,0,.817-.445,2.115,2.115,0,0,0,0-2.25Zm-1.93-.258a1.375,1.375,0,0,1,2.219-.008,2.468,2.468,0,0,1,0,2.77,1.375,1.375,0,0,1-2.219,0,2.47,2.47,0,0,1,0-2.762" fill="#fcecdb"/>
    <path id="Path_19" data-name="Path 19" d="M193.418,74.359a.862.862,0,0,0-.258.645.78.78,0,0,0,.262.617.94.94,0,0,0,.652.23,1.02,1.02,0,0,0,.614-.207,1.047,1.047,0,0,0,.378-.523c-.066-.645-.418-1.02-1-1.02A.89.89,0,0,0,193.418,74.359Zm1.664-.16a2,2,0,0,1,.379,1.293c.023,1.172-.609,2.137-1.625,2.129a1.339,1.339,0,0,1-.793-.234v-.379a1.324,1.324,0,0,0,.762.242c.886,0,1.258-.812,1.273-1.605a1.228,1.228,0,0,1-1.1.559,1.212,1.212,0,0,1-.863-.336A1.152,1.152,0,0,1,192.77,75a1.249,1.249,0,0,1,.363-.914,1.361,1.361,0,0,1,1.949.109" fill="#fcecdb"/>
    <path id="Path_20" data-name="Path 20" d="M196.254,77.109a.278.278,0,0,1,.394,0,.282.282,0,0,1,0,.4.285.285,0,0,1-.394,0A.289.289,0,0,1,196.254,77.109Zm0-2a.279.279,0,1,1,0,.395.284.284,0,0,1,0-.395" fill="#fcecdb"/>
    <path id="Path_21" data-name="Path 21" d="M198.1,77.555V74.227l-.839.48v-.379l.882-.531h.348v3.758H198.1" fill="#fcecdb"/>
    <path id="Path_22" data-name="Path 22" d="M201.793,74.555a.966.966,0,0,0-1.637,0,1.88,1.88,0,0,0-.32,1.121,1.952,1.952,0,0,0,.312,1.129.988.988,0,0,0,.825.445.969.969,0,0,0,.82-.445,2.137,2.137,0,0,0,0-2.25Zm-1.934-.258a1.379,1.379,0,0,1,2.223-.008,2.483,2.483,0,0,1,0,2.77,1.338,1.338,0,0,1-1.109.563,1.353,1.353,0,0,1-1.114-.562,2.475,2.475,0,0,1,0-2.762" fill="#fcecdb"/>
    <path id="Path_23" data-name="Path 23" d="M205.207,75.535h1.152c.528,0,.832-.25.832-.687s-.3-.691-.832-.691h-1.152Zm-.394,2.02V73.8h1.57c.75,0,1.2.418,1.2,1.039a1.054,1.054,0,0,1-1.2,1.059h-1.176v1.66h-.394" fill="#fcecdb"/>
    <path id="Path_24" data-name="Path 24" d="M208.371,77.555V73.8h.391l1.355,1.82,1.352-1.82h.386v3.758h-.39V74.4l-1.227,1.641H210L208.762,74.4v3.156h-.391" fill="#fcecdb"/>
    <path id="Path_25" data-name="Path 25" d="M169.91,105.273H150.969a1.043,1.043,0,0,1-1.039-1.043V81.566c5.164,6.117,15.273,18.117,19.98,23.707" fill="#f9e5d1"/>
    <path id="Path_26" data-name="Path 26" d="M167.152,84.254a3.217,3.217,0,1,1,3.211-3.215A3.211,3.211,0,0,1,167.152,84.254Zm0-10.031a6.875,6.875,0,0,0-6.863,6.887c0,3.8,6.863,12.254,6.863,12.254s6.864-8.453,6.864-12.254a6.873,6.873,0,0,0-6.864-6.887" fill="#f99746"/>
    <path id="Path_27" data-name="Path 27" d="M166.578,99.078H154.727a.756.756,0,0,1,0-1.512h11.851a.756.756,0,0,1,0,1.512" fill="#efcbab"/>
    <path id="Path_28" data-name="Path 28" d="M163.648,101.352h-9.011a.667.667,0,0,1-.664-.668v-.18a.667.667,0,0,1,.664-.668h9.011a.67.67,0,0,1,.665.668v.18a.67.67,0,0,1-.665.668" fill="#efcbab"/>
    <path id="Path_29" data-name="Path 29" d="M186.094,111.84V145.2a1.044,1.044,0,0,1-1.039,1.043H117.723a1.043,1.043,0,0,1-1.039-1.043V111.84a1.044,1.044,0,0,1,1.039-1.043h67.332a1.045,1.045,0,0,1,1.039,1.043" fill="#fcecdb"/>
    <path id="Path_30" data-name="Path 30" d="M186.094,111.84V145.2a1.044,1.044,0,0,1-1.039,1.043H155.1V110.8h29.95a1.045,1.045,0,0,1,1.039,1.043" fill="#f99746"/>
    <path id="Path_31" data-name="Path 31" d="M170.375,135.742a1.67,1.67,0,0,1-1.449-.836l-4.426-7.59a1.68,1.68,0,1,1,2.9-1.7l2.84,4.867,5.344-11.031a1.677,1.677,0,0,1,2.246-.781,1.7,1.7,0,0,1,.777,2.254l-6.722,13.867a1.675,1.675,0,0,1-1.445.949h-.063" fill="#fcecdb"/>
    <path id="Path_32" data-name="Path 32" d="M170.375,119.957a9.233,9.233,0,1,0,9.2,9.234A9.228,9.228,0,0,0,170.375,119.957Zm0,19.691A10.457,10.457,0,1,1,180.8,129.191a10.453,10.453,0,0,1-10.422,10.457" fill="#fcecdb"/>
    <path id="Path_33" data-name="Path 33" d="M136.4,146.238H117.723a1.043,1.043,0,0,1-1.039-1.043V119.387L136.4,146.238" fill="#f9e5d1"/>
    <path id="Path_34" data-name="Path 34" d="M128.3,120.449h-2.59a.12.12,0,0,1-.117-.121v-2.789a.121.121,0,0,1,.117-.121.122.122,0,0,1,.121.121v2.668H128.3a.121.121,0,0,1,0,.242Zm-2.59-3.867a3.746,3.746,0,1,0,3.734,3.746,3.741,3.741,0,0,0-3.734-3.746" fill="#f99746"/>
    <path id="Path_35" data-name="Path 35" d="M144.926,118.934H133.078a.758.758,0,0,1,0-1.516h11.848a.758.758,0,0,1,0,1.516" fill="#efcbab"/>
    <path id="Path_36" data-name="Path 36" d="M142,121.2h-9.016a.666.666,0,0,1-.664-.664v-.184a.669.669,0,0,1,.664-.664H142a.669.669,0,0,1,.664.664v.184a.666.666,0,0,1-.664.664" fill="#efcbab"/>
    <path id="Path_37" data-name="Path 37" d="M125.344,135.992a1.576,1.576,0,1,1,1.57-1.574A1.572,1.572,0,0,1,125.344,135.992Zm0-4.914a3.368,3.368,0,0,0-3.36,3.375c0,1.86,3.36,6,3.36,6s3.359-4.14,3.359-6a3.368,3.368,0,0,0-3.359-3.375" fill="#f99746"/>
    <path id="Path_38" data-name="Path 38" d="M144.023,133.539H132.176a.758.758,0,0,1,0-1.516h11.847a.758.758,0,1,1,0,1.516" fill="#efcbab"/>
    <path id="Path_39" data-name="Path 39" d="M141.1,135.809h-9.012a.666.666,0,0,1-.664-.664v-.184a.664.664,0,0,1,.664-.664H141.1a.666.666,0,0,1,.664.664v.184a.669.669,0,0,1-.664.664" fill="#efcbab"/>
    <path id="Path_40" data-name="Path 40" d="M52.625,130.875A123.138,123.138,0,0,0,51.211,115.8c-1.016-5.887-1.93-9.274-1.941-9.313-.133-.515-2.062-2.613-6.355-2.546s-3.891,2.812-3.891,2.812a1.009,1.009,0,0,0,.031.242,132.174,132.174,0,0,1,3.813,33c0,.258-.031.707-.012,1.008,0,0,9.949.258,9.953,0,.348-1.621.18-6.1-.184-10.121" fill="#b7d3f3"/>
    <path id="Path_41" data-name="Path 41" d="M53.879,139.9c0,.257-.141.464-.3.464h0c-.168,0-.3-.211-.3-.464H44.742c0,.257-.141.464-.3.464h0c-.168,0-.3-.218-.3-.476a129.068,129.068,0,0,0-.707-14.617,115.617,115.617,0,0,0-3.258-18.274.841.841,0,0,1-.031-.242s-.406-2.746,3.887-2.812,6.227,2.031,6.359,2.546c.008.028.523,1.946,1.211,5.395.23,1.144.477,2.453.727,3.918a123.158,123.158,0,0,1,1.414,15.078c.363,4.02.488,7.4.144,9.02" fill="#d2e3fc"/>
    <path id="Path_42" data-name="Path 42" d="M43.5,140.359H76.938s-.777-3.16-20.141-2.691c-13.7.336-13.293,2.691-13.293,2.691" fill="#c5dcf8"/>
    <path id="Path_43" data-name="Path 43" d="M40.781,173.375c3.875-19.687,2.879-31.77,2.875-31.922-.008-.3.547-.578.848-.586s1.641-.09,1.8.168c.2.34.98,15.227-4.8,32.34h-.723" fill="#b7d3f3"/>
    <path id="Path_44" data-name="Path 44" d="M72,173.375c-3.879-19.687-2.883-31.77-2.875-31.922.008-.3-.547-.578-.848-.586s-1.641-.09-1.8.168c-.2.34-.984,15.227,4.793,32.34H72" fill="#b7d3f3"/>
    <path id="Path_45" data-name="Path 45" d="M78.184,173.375c-3.875-19.687-2.879-31.77-2.875-31.922.012-.3-.547-.578-.844-.586s-1.645-.09-1.8.168c-.2.34-.984,15.227,4.793,32.34h.723" fill="#b7d3f3"/>
    <path id="Path_46" data-name="Path 46" d="M47.008,173.375c3.879-19.687,2.883-31.77,2.875-31.922-.008-.3.547-.578.848-.586s1.641-.09,1.8.168c.2.34.984,15.227-4.793,32.34h-.727" fill="#b7d3f3"/>
    <path id="Path_47" data-name="Path 47" d="M76.957,141.367H43.523a.685.685,0,0,1-.684-.687v-.45a.685.685,0,0,1,.684-.687H76.957a.688.688,0,0,1,.684.687v.45a.687.687,0,0,1-.684.687" fill="#b7d3f3"/>
    <path id="Path_48" data-name="Path 48" d="M75.781,111.078l11.113-2.414.656,1.6s-12.262,7.32-13.41,6.961,1.641-6.145,1.641-6.145" fill="#ffb27d"/>
    <path id="Path_49" data-name="Path 49" d="M65.68,161.5a.981.981,0,0,0-.176,1.059v0a6.552,6.552,0,0,0,2.074,2.282c.125.1.238.195.332.281.027.019.051.043.078.066s.035.035.055.051c.914.844.57,1.039,2.207,2.75,1.867,1.949,3.152,1.984,3.52,1.8.309-.153-.32-1.184-1.016-2.348-.035-.055-.066-.113-.1-.168-.094-.156-.183-.312-.277-.469-.816-1.4-.605-2.054-.414-4.132.16-1.692,2.625-9.45,2.625-9.45L71,152.613s-1.074,6.18-2.262,7.129c-.637.508-1.348.516-1.957.891-.043.027-.086.051-.129.082a4.721,4.721,0,0,0-.977.789" fill="#ffb27d"/>
    <path id="Path_50" data-name="Path 50" d="M65.68,161.5a.981.981,0,0,0-.176,1.059v0a7.612,7.612,0,0,0,2.078,2.278c.125.1.234.2.328.285.027.019.051.043.078.066s.035.035.055.051c.914.844.57,1.039,2.207,2.75,1.867,1.949,3.152,1.984,3.52,1.8.309-.153-.32-1.184-1.016-2.348a7.939,7.939,0,0,1-3.328-2.461c-1.125-1.437-1.875-3.289-2.641-4.359-.043.027-.086.051-.129.082a4.721,4.721,0,0,0-.977.789" fill="#1c468a"/>
    <path id="Path_51" data-name="Path 51" d="M94.535,159.262c.223,1.105,1.8.922,3.555.492s1.344.082,3.848-.2,3.261-1.215,3.339-1.586c.067-.332-1.172-.449-2.5-.6-.164-.019-.332-.039-.5-.062-1.5-.188-2.6-1.157-3.957-1.953-1.289-.758-3.211-3.829-3.211-3.829l-3.434.27s1.8,2.746,2.5,3.941a4.179,4.179,0,0,1,.34,2.348,4.421,4.421,0,0,0,.023,1.18" fill="#ffb27d"/>
    <path id="Path_52" data-name="Path 52" d="M98.09,159.754c1.762-.434,1.344.082,3.848-.2s3.261-1.215,3.339-1.586c.067-.332-1.172-.449-2.5-.6l-.011.024a7.009,7.009,0,0,1-3.586,1.117c-1.7.043-3.5-.445-4.668-.426a4.421,4.421,0,0,0,.023,1.18c.223,1.105,1.8.922,3.555.492" fill="#1c468a"/>
    <path id="Path_53" data-name="Path 53" d="M86.895,108.664s.82-2.012,1.719-2.094,3.766-.535,3.969-.125a2.852,2.852,0,0,1-.613,2.422c-.613.535-4.418,1.4-4.418,1.4l-.656-1.6" fill="#ffb27d"/>
    <path id="Path_54" data-name="Path 54" d="M81.379,137.23l-7.4,19.985a6.761,6.761,0,0,1-2.227-.207,9.52,9.52,0,0,1-2.152-1.051s1.836-19.184,5.2-23.176,6.582,4.449,6.582,4.449" fill="#163560"/>
    <path id="Path_55" data-name="Path 55" d="M52.105,129.148s21.266-7.21,26.008-5.679,18.981,29.957,18.981,29.957a2.76,2.76,0,0,1-1.2.762,11.4,11.4,0,0,1-2.793.285S80.254,143.422,78.727,140.2s-2.145-6.293-3.672-5.984-19.738,7.519-23.867,3.223a12,12,0,0,1-3.051-9.883l3.969,1.593" fill="#1c468a"/>
    <path id="Path_56" data-name="Path 56" d="M64.23,78.285a5.155,5.155,0,0,0-2.793-.539,1.317,1.317,0,0,1,.59-.277,4.261,4.261,0,0,0-1.547.4c-6.645-2.57-7.687,7.25-7.551,9.527s.156,4.906-3.16,6.953c-6.527,4.023-1.02,11.05-1.02,11.05.051.032,3.035,5.11,3.035,5.11-.168-1.84,8.309-11.567,12.734-14.481a12.957,12.957,0,0,0,1.488-4.621,12.184,12.184,0,0,1-.906,4.18c3.746-3.457,1.563-15.918-.871-17.3" fill="#b5453c"/>
    <path id="Path_57" data-name="Path 57" d="M64.258,96.176a6.108,6.108,0,0,1-3.758.688A4.878,4.878,0,0,1,58,94.457c.644-.129.832-1.02.816-4.852l.293.059,4.914.977s-.109,1.551-.113,3.016c0,1.226.07,2.391.351,2.519" fill="#ffb27d"/>
    <path id="Path_58" data-name="Path 58" d="M64.02,90.641s-.109,1.551-.113,3.016c-2.75-.078-4.2-2.6-4.8-3.992l4.914.977" fill="#ed975d"/>
    <path id="Path_59" data-name="Path 59" d="M58.6,89.129a14.487,14.487,0,0,1-1.785-4.238c-.246-1.395.461-6.562,5.637-5.82a7.067,7.067,0,0,1,2.918,1.109c1.125.762,2.746,2.406.934,6.914l-.473,1.523-7.23.512" fill="#b5453c"/>
    <path id="Path_60" data-name="Path 60" d="M64.938,92.023s-6.5.109-6.508-3.957-.848-6.789,3.3-7.031S66.7,82.348,67.027,83.7s-.395,8.188-2.09,8.32" fill="#ffb27d"/>
    <path id="Path_61" data-name="Path 61" d="M64.7,80.938s-1.781,4.77-4.516,5.477-3.922-.031-3.922-.031a7.783,7.783,0,0,0,2.535-4.59s4.559-3.125,5.9-.855" fill="#b5453c"/>
    <path id="Path_62" data-name="Path 62" d="M64.258,81.324a5.773,5.773,0,0,1,1.652,2.1c.324,1.035.473,3.164,1.09,3.094,0,0,1.344-3.242-.164-5.078-1.6-1.941-2.578-.117-2.578-.117" fill="#b5453c"/>
    <path id="Path_63" data-name="Path 63" d="M49.77,113.734c-.641-2.7,1.539-7.937,3.82-12.273,2.066-3.93,4.211-7.117,4.406-7C63.449,97.7,63.941,95,63.941,95s4.953.66,6.355,3.082c1.738,3,3.617,11.4,5.484,12.992a3.536,3.536,0,0,0,.141,2.438c.066.234.137.457.215.668a13.141,13.141,0,0,0,.938,1.929c-.949.578-2.781,1.68-4.129.887-2.059-1.207-3.664-4.887-4.57-6.352l-.008-.015c-1.965,11.156.707,13.695-.648,14.871-1.426,1.242-3.465-.59-7.953,1.359-2.945,1.282-7.031,3.133-9.777,3.457-1.445.172-2.52-.082-2.871-1.058-1.02-2.84,3.875-10.379,2.652-15.528" fill="#1c468a"/>
    <path id="Path_64" data-name="Path 64" d="M63.492,89.559s.121.52,1.4.438c0,0,1.074-.066,1.043-.633a3.441,3.441,0,0,0-2.445.2" fill="#fff"/>
    <path id="Path_65" data-name="Path 65" d="M47.117,129.262c.352.976,1.426,1.23,2.871,1.058,1.9-.832,10.125-4.027,10.031-6.191-.137-3.207-1.582-3.309-.562-7.266.82-3.175-6.777-9.086-7.988-10.371-2.277,4.34-2.34,4.543-1.7,7.242,1.223,5.149-3.672,12.688-2.652,15.528" fill="#163560"/>
    <path id="Path_66" data-name="Path 66" d="M46.188,117.7a12.063,12.063,0,0,1,3.977-3.687c-.23-.594,6.133-8.418,6.133-9.633S58,94.457,58,94.457s-5.3.328-7.137,2.895c-2.3,3.214-7.066,15.574-4.672,20.347" fill="#1c468a"/>
    <path id="Path_67" data-name="Path 67" d="M50.164,114.012l10.594,2.773-.992,1.793s-12.894-.094-13.578-.879,3.977-3.687,3.977-3.687" fill="#ffb27d"/>
    <path id="Path_68" data-name="Path 68" d="M68.375,110.648c.906,1.465,2.512,5.145,4.57,6.352,1.348.793,3.18-.309,4.129-.887a13.141,13.141,0,0,1-.937-1.929c-.754.171-1.68.394-2.277.574-1.156.355-5.484-4.11-5.484-4.11" fill="#163560"/>
    <path id="Path_69" data-name="Path 69" d="M60.758,116.785s3.328-.945,4.121-.722,3.508,2.023,3.125,2.515-2.773-.293-3.875-.148-1.949.695-2.742.578a9.1,9.1,0,0,1-1.621-.43l.992-1.793" fill="#ffb27d"/>
    <path id="Path_70" data-name="Path 70" d="M60.758,116.785a12.357,12.357,0,0,0,2.094-1.316.128.128,0,0,1,.2.023c.125.2.242.578-.328.953a3.064,3.064,0,0,1-1.965.34" fill="#ffb27d"/>
    <path id="Path_71" data-name="Path 71" d="M76.137,121.48H60.613a1.239,1.239,0,0,1,1.238-1.238H76.137v1.238" fill="#ed7d2b"/>
    <path id="Path_72" data-name="Path 72" d="M76.09,104.523h24L94.332,121.48H70.18l5.91-16.957" fill="#ed7d2b"/>
    <path id="Path_73" data-name="Path 73" d="M100.445,104.523,94.688,121.48H70.531l5.914-16.957h24" fill="#f99746"/>
    <path id="Path_74" data-name="Path 74" d="M87.5,112.844a1.562,1.562,0,0,1-1.437,1.176.906.906,0,0,1-.9-1.176,1.566,1.566,0,0,1,1.441-1.172.9.9,0,0,1,.9,1.172" fill="#f9ddbf"/>
    <path id="Path_75" data-name="Path 75" d="M100.445,104.523,94.688,121.48h-16c10.594-3.628,13.418-14.691,13.891-16.957h7.863" fill="#ed893e"/>
    <path id="Path_76" data-name="Path 76" d="M30.77,173.375a.626.626,0,0,0,.617-.5L34.4,155.73l4.336-24.652,1.215-6.894-3.09-.086-.535,4-3.762,28.121-2.23,16.668a.436.436,0,0,0,.438.488" fill="#95c0f4"/>
    <path id="Path_77" data-name="Path 77" d="M36.324,128.1a4.442,4.442,0,0,1,2.41,2.98l1.215-6.894-3.09-.086-.535,4" fill="#78acea"/>
    <path id="Path_78" data-name="Path 78" d="M107.582,173.375a.625.625,0,0,1-.617-.5l-3.012-17.141-4.336-24.652L98.4,124.184l3.09-.086.535,4,3.762,28.121,2.231,16.668a.436.436,0,0,1-.438.488" fill="#95c0f4"/>
    <path id="Path_79" data-name="Path 79" d="M102.027,128.1a4.441,4.441,0,0,0-2.41,2.98L98.4,124.184l3.09-.086.535,4" fill="#78acea"/>
    <path id="Path_80" data-name="Path 80" d="M28.711,126.891h79.082A1.891,1.891,0,0,0,109.676,125v-1.633a1.89,1.89,0,0,0-1.883-1.887H28.711a1.89,1.89,0,0,0-1.883,1.887V125a1.891,1.891,0,0,0,1.883,1.891" fill="#78acea"/>
    <path id="Path_82" data-name="Path 82" d="M212.711,85.051s-1.106-3.574-1.731-3.957-3.242-1.68-3.4-1.328,1.414,2.047,1.762,2.613.519,1.125.277.879-1.566-1.062-1.707-.879.664.879,1.047,1.438a2.992,2.992,0,0,0,2.156,1.715c1.36.207,1.594-.481,1.594-.481" fill="#ffb27d"/>
    <path id="Path_83" data-name="Path 83" d="M252.953,115.137a20.044,20.044,0,0,1-.691,3.836,13.655,13.655,0,0,1-2.571,2.945c-.656.383.4-2.57.27-3.145s-.543,1.047-.832,1.086-.215-1.421-.227-1.957,1.414-1.843,1.914-2.976,2.137.211,2.137.211" fill="#ffb27d"/>
    <path id="Path_84" data-name="Path 84" d="M242.867,82.02a24.734,24.734,0,0,1-17.4,17.477c-4.6,1.344-15.035-13.836-15.035-13.836s.367-1.4,2.664-1.078c0,0,10.168,6.75,11.445,7.484,1.137.652,8.6-8.363,12.012-9.82a8.664,8.664,0,0,1,6.312-.227" fill="#233862"/>
    <path id="Path_85" data-name="Path 85" d="M260.441,164.824s1.829,1.676,1.469,2.864-2,1.976-2.226,3.429-1.114,2.246-1.914,2.246h-3.825s-.59-1.023.836-1.332,1.965-2.011,1.875-3.6a27.908,27.908,0,0,1,.133-3.7l3.027-.7.625.789" fill="#233862"/>
    <path id="Path_86" data-name="Path 86" d="M238.035,169.148s.328,3.809-.472,4.2l-10.262-.02s0-1.191,1.648-1.453,4.543-1.231,5.031-3.391,4.055.66,4.055.66" fill="#233862"/>
    <path id="Path_87" data-name="Path 87" d="M229.371,115.4s.543,6.668,1.18,14.688c.863,10.891,1.9,24.269,2,26.805.179,4.4.894,11.441.894,11.441s1.692,1.672,5.078.969a114.084,114.084,0,0,0,3.879-20.684c.012-.176.028-.351.039-.527.8-10.824,2.051-33.617,2.051-33.617l-15.125.925" fill="#f99746"/>
    <path id="Path_88" data-name="Path 88" d="M229.371,115.4s.543,6.668,1.18,14.688l11.855,18.531c.012-.176.028-.351.039-.527.8-10.824,2.051-33.617,2.051-33.617l-15.125.925" fill="#ed7d2b"/>
    <path id="Path_89" data-name="Path 89" d="M231.844,116.191s9.754,24.157,16.168,35.508,8.422,14.52,8.422,14.52,3.671-1.453,4.007-2.442c0,0-2.453-21.918-6.75-27.257-2.425-3.02-5.277-12.082-5.41-15.247s-.871-9.441-.871-9.441l-15.566,4.359" fill="#f99746"/>
    <path id="Path_90" data-name="Path 90" d="M244.68,78.961s-6.6,3.2-10.407,2.012a9.008,9.008,0,0,1,2.575-2.07c-.129-.766-.235-1.43-.293-1.992a18.6,18.6,0,0,1-.16-2.039l2.546-2.012,2.414-1.922a9.782,9.782,0,0,0,3.325,8.023" fill="#ffb27d"/>
    <path id="Path_91" data-name="Path 91" d="M248.156,113.07c.016.407-.847.868-1.23,1.039a26.782,26.782,0,0,1-8.442,2.4c-3.527.359-7.7-.434-9.132-.407a.6.6,0,0,1-.4-.156c-.1-.074-.176-4.34-.1-9.7,0-.215,0-.433.015-.648v-.075c.028-2.093.1-4.293.2-6.492A72.783,72.783,0,0,1,230.3,86.977a13.108,13.108,0,0,1,4.129-6.508l1.316-1.156a6.3,6.3,0,0,0,4.1-.492c1.523-.734,3.16-1.531,3.426-1.328,1.988,1.457,3.335,4.742,4.054,8.934a.335.335,0,0,1,.008.063,46.669,46.669,0,0,1,.59,7.891c0,1.039-.027,2.109-.086,3.164a94.783,94.783,0,0,0,.094,11.988c.039.582.078,1.114.109,1.586.059.84.1,1.492.117,1.953" fill="#2a4e96"/>
    <path id="Path_92" data-name="Path 92" d="M247.93,109.531c-10.942-12.675-4.153-21.886-4.153-21.886l3.555-1.156a46.669,46.669,0,0,1,.59,7.891c0,1.039-.027,2.109-.086,3.164a94.783,94.783,0,0,0,.094,11.988" fill="#233862"/>
    <path id="Path_93" data-name="Path 93" d="M241.4,73a8.782,8.782,0,0,1-4.847,3.906,18.6,18.6,0,0,1-.16-2.039l2.546-2.012L241.4,73" fill="#ed985f"/>
    <path id="Path_94" data-name="Path 94" d="M235.234,74.781s6.3,1.035,6.887-2.848,1.8-6.367-2.191-7.191-5,.543-5.524,1.789-.793,7.883.828,8.25" fill="#ffb27d"/>
    <path id="Path_95" data-name="Path 95" d="M244.41,64.277c.059-.066.188-.117.485-.133a1.208,1.208,0,0,0-.551-.156,1.479,1.479,0,0,0-.981-1.309.869.869,0,0,1,.426.637c-.812-.84-2.555-1.449-7.379-1.066-6.359.5-4.265,4.586-3.441,5.074s2.894-.848,4.429-.727,1.825,2.348,2.348,2.652.313-.234,1.02-.555.769.852.566,1.613.766,1.766.766,1.766l.976-1.059c.977-1.055,1.9-5.527,1.453-6.484-.039-.082-.078-.168-.117-.254" fill="#2c3a64"/>
    <path id="Path_96" data-name="Path 96" d="M243.266,77.461s3.984,1.891,5.894,4.8c2.961,4.512,6.4,20.961,6.461,22.484s-2.508,12.277-2.508,12.277-2.605-.171-3.277-1.492c0,0,.519-11.051.191-11.758s-10.871-14.824-9.683-17.832,2.922-8.48,2.922-8.48" fill="#2a4e96"/>
    <path id="Path_97" data-name="Path 97" d="M210.227,102.191H194.512a2.5,2.5,0,0,1-2.485-2.5v-.7a2.5,2.5,0,0,1,2.485-2.492h15.715a2.5,2.5,0,0,1,2.484,2.492v.7a2.5,2.5,0,0,1-2.484,2.5" fill="#fcecdb"/>
    <path id="Path_98" data-name="Path 98" d="M202.336,100.59a.316.316,0,0,1-.273-.156l-.825-1.418a.312.312,0,1,1,.539-.316l.532.91,1-2.062a.313.313,0,1,1,.562.277l-1.254,2.586a.323.323,0,0,1-.269.18h-.012" fill="#f99746"/>
    <path id="Path_99" data-name="Path 99" d="M202.336,97.645a1.723,1.723,0,1,0,1.715,1.723A1.72,1.72,0,0,0,202.336,97.645Zm0,3.672a1.951,1.951,0,1,1,1.945-1.949,1.949,1.949,0,0,1-1.945,1.949" fill="#f99746"/>
    <path id="Path_100" data-name="Path 100" d="M113.672,81.746H96.883a4.031,4.031,0,0,0-4.012,4.027v6.371a4.015,4.015,0,0,0,1,2.648l-1,4.574,5.754-3.2h15.047a4.028,4.028,0,0,0,4.012-4.023V85.773a4.031,4.031,0,0,0-4.012-4.027" fill="#d2e3fc"/>
    <path id="Path_101" data-name="Path 101" d="M113.988,86.605H96.582a.654.654,0,0,1,0-1.309h17.406a.654.654,0,0,1,0,1.309" fill="#b7d3f3"/>
    <path id="Path_102" data-name="Path 102" d="M113.988,89.465H96.582a.654.654,0,0,1,0-1.308h17.406a.654.654,0,0,1,0,1.308" fill="#b7d3f3"/>
    <path id="Path_103" data-name="Path 103" d="M113.988,92.215H96.582a.652.652,0,0,1,0-1.3h17.406a.652.652,0,1,1,0,1.3" fill="#b7d3f3"/>
  </g>
</svg>
