<svg width="40" height="40" viewBox="0 0 40 40" fill="none" xmlns="http://www.w3.org/2000/svg">
<rect width="40" height="40" rx="20" fill="black"/>
<path d="M16 29V15C16 14.07 16 13.605 16.1022 13.2235C16.3796 12.1883 17.1883 11.3796 18.2235 11.1022C18.605 11 19.07 11 20 11C20.93 11 21.395 11 21.7765 11.1022C22.8117 11.3796 23.6204 12.1883 23.8978 13.2235C24 13.605 24 14.07 24 15V29M13.2 29H26.8C27.9201 29 28.4802 29 28.908 28.782C29.2843 28.5903 29.5903 28.2843 29.782 27.908C30 27.4802 30 26.9201 30 25.8V18.2C30 17.0799 30 16.5198 29.782 16.092C29.5903 15.7157 29.2843 15.4097 28.908 15.218C28.4802 15 27.9201 15 26.8 15H13.2C12.0799 15 11.5198 15 11.092 15.218C10.7157 15.4097 10.4097 15.7157 10.218 16.092C10 16.5198 10 17.0799 10 18.2V25.8C10 26.9201 10 27.4802 10.218 27.908C10.4097 28.2843 10.7157 28.5903 11.092 28.782C11.5198 29 12.0799 29 13.2 29Z" stroke="white" stroke-width="2" stroke-linecap="round" stroke-linejoin="round"/>
</svg>
