<svg width="24" height="24" viewBox="0 0 24 24" fill="none" xmlns="http://www.w3.org/2000/svg">
<path d="M18 4.5H16.5C16.5 4.10218 16.342 3.72064 16.0607 3.43934C15.7794 3.15804 15.3978 3 15 3H14.25V2.25C14.25 1.65326 14.0129 1.08097 13.591 0.65901C13.169 0.237053 12.5967 0 12 0C11.4033 0 10.831 0.237053 10.409 0.65901C9.98705 1.08097 9.75 1.65326 9.75 2.25V3H9C8.60218 3 8.22064 3.15804 7.93934 3.43934C7.65804 3.72064 7.5 4.10218 7.5 4.5H6C5.40326 4.5 4.83097 4.73705 4.40901 5.15901C3.98705 5.58097 3.75 6.15326 3.75 6.75V21.75C3.75 22.3467 3.98705 22.919 4.40901 23.341C4.83097 23.7629 5.40326 24 6 24H12.75C12.9489 24 13.1397 23.921 13.2803 23.7803C13.421 23.6397 13.5 23.4489 13.5 23.25C13.5 23.0511 13.421 22.8603 13.2803 22.7197C13.1397 22.579 12.9489 22.5 12.75 22.5H6C5.80109 22.5 5.61032 22.421 5.46967 22.2803C5.32902 22.1397 5.25 21.9489 5.25 21.75V6.75C5.25 6.55109 5.32902 6.36032 5.46967 6.21967C5.61032 6.07902 5.80109 6 6 6H7.5C7.5 6.39782 7.65804 6.77936 7.93934 7.06066C8.22064 7.34196 8.60218 7.5 9 7.5H15C15.3978 7.5 15.7794 7.34196 16.0607 7.06066C16.342 6.77936 16.5 6.39782 16.5 6H18C18.1989 6 18.3897 6.07902 18.5303 6.21967C18.671 6.36032 18.75 6.55109 18.75 6.75V12.75C18.75 12.9489 18.829 13.1397 18.9697 13.2803C19.1103 13.421 19.3011 13.5 19.5 13.5C19.6989 13.5 19.8897 13.421 20.0303 13.2803C20.171 13.1397 20.25 12.9489 20.25 12.75V6.75C20.25 6.15326 20.0129 5.58097 19.591 5.15901C19.169 4.73705 18.5967 4.5 18 4.5ZM11.25 2.25C11.25 2.05109 11.329 1.86032 11.4697 1.71967C11.6103 1.57902 11.8011 1.5 12 1.5C12.1989 1.5 12.3897 1.57902 12.5303 1.71967C12.671 1.86032 12.75 2.05109 12.75 2.25V3H11.25V2.25ZM9 6V4.5H15V5.25V6H9Z" fill="black"/>
<path d="M12.7496 18C12.5761 17.999 12.4084 17.9379 12.2749 17.8271C12.1414 17.7163 12.0505 17.5627 12.0175 17.3924C11.9846 17.2221 12.0117 17.0456 12.0943 16.8931C12.1768 16.7405 12.3097 16.6213 12.4703 16.5557C12.6309 16.4901 12.8092 16.4822 12.975 16.5333C13.1408 16.5845 13.2837 16.6915 13.3794 16.8361C13.4751 16.9808 13.5177 17.1542 13.5 17.3267C13.4822 17.4993 13.4052 17.6603 13.2821 17.7825C13.1383 17.9195 12.9481 17.9972 12.7496 18Z" fill="#A3A3A3"/>
<path d="M8.25014 18.75C8.15143 18.7506 8.05359 18.7317 7.96221 18.6943C7.87083 18.657 7.78772 18.602 7.71764 18.5325L6.96764 17.7825C6.82641 17.6413 6.74707 17.4497 6.74707 17.25C6.74707 17.0503 6.82641 16.8587 6.96764 16.7175C7.10887 16.5763 7.30041 16.4969 7.50014 16.4969C7.69986 16.4969 7.89141 16.5763 8.03264 16.7175L8.25014 16.9425L9.21764 15.9675C9.28757 15.8976 9.37058 15.8421 9.46195 15.8043C9.55332 15.7664 9.65124 15.7469 9.75014 15.7469C9.84903 15.7469 9.94696 15.7664 10.0383 15.8043C10.1297 15.8421 10.2127 15.8976 10.2826 15.9675C10.3526 16.0374 10.408 16.1205 10.4459 16.2118C10.4837 16.3032 10.5032 16.4011 10.5032 16.5C10.5032 16.5989 10.4837 16.6968 10.4459 16.7882C10.408 16.8796 10.3526 16.9626 10.2826 17.0325L8.78264 18.5325C8.71256 18.602 8.62945 18.657 8.53807 18.6943C8.44669 18.7317 8.34884 18.7506 8.25014 18.75Z" fill="#A3A3A3"/>
<path d="M16.5 12H12.75C12.5511 12 12.3603 11.921 12.2197 11.7803C12.079 11.6397 12 11.4489 12 11.25C12 11.0511 12.079 10.8603 12.2197 10.7197C12.3603 10.579 12.5511 10.5 12.75 10.5H16.5C16.6989 10.5 16.8897 10.579 17.0303 10.7197C17.171 10.8603 17.25 11.0511 17.25 11.25C17.25 11.4489 17.171 11.6397 17.0303 11.7803C16.8897 11.921 16.6989 12 16.5 12Z" fill="#A3A3A3"/>
<path d="M8.25014 12.75C8.15143 12.7506 8.05359 12.7317 7.96221 12.6943C7.87083 12.657 7.78772 12.602 7.71764 12.5325L6.96764 11.7825C6.82641 11.6413 6.74707 11.4497 6.74707 11.25C6.74707 11.0503 6.82641 10.8587 6.96764 10.7175C7.10887 10.5763 7.30041 10.4969 7.50014 10.4969C7.69986 10.4969 7.89141 10.5763 8.03264 10.7175L8.25014 10.9425L9.21764 9.96752C9.35887 9.82629 9.55041 9.74695 9.75014 9.74695C9.94987 9.74695 10.1414 9.82629 10.2826 9.96752C10.4239 10.1087 10.5032 10.3003 10.5032 10.5C10.5032 10.6997 10.4239 10.8913 10.2826 11.0325L8.78264 12.5325C8.71256 12.602 8.62945 12.657 8.53807 12.6943C8.44669 12.7317 8.34884 12.7506 8.25014 12.75Z" fill="#A3A3A3"/>
<path d="M18 15.75H21V18C21 18.1989 20.921 18.3897 20.7803 18.5303C20.6397 18.671 20.4489 18.75 20.25 18.75H18.75C18.5511 18.75 18.3603 18.671 18.2197 18.5303C18.079 18.3897 18 18.1989 18 18V15.75Z" fill="#A3A3A3"/>
<path d="M21.75 24H17.25C16.6533 24 16.081 23.7629 15.659 23.341C15.2371 22.919 15 22.3467 15 21.75V17.25C15 16.6533 15.2371 16.081 15.659 15.659C16.081 15.2371 16.6533 15 17.25 15H21.75C22.3467 15 22.919 15.2371 23.341 15.659C23.7629 16.081 24 16.6533 24 17.25V21.75C24 22.3467 23.7629 22.919 23.341 23.341C22.919 23.7629 22.3467 24 21.75 24ZM17.25 16.5C17.0511 16.5 16.8603 16.579 16.7197 16.7197C16.579 16.8603 16.5 17.0511 16.5 17.25V21.75C16.5 21.9489 16.579 22.1397 16.7197 22.2803C16.8603 22.421 17.0511 22.5 17.25 22.5H21.75C21.9489 22.5 22.1397 22.421 22.2803 22.2803C22.421 22.1397 22.5 21.9489 22.5 21.75V17.25C22.5 17.0511 22.421 16.8603 22.2803 16.7197C22.1397 16.579 21.9489 16.5 21.75 16.5H17.25Z" fill="black"/>
</svg>
