<svg width="24" height="24" viewBox="0 0 24 24" fill="none" xmlns="http://www.w3.org/2000/svg">
<g clip-path="url(#clip0_2051_29266)">
<path d="M7.5 0.75H12V4.5975C12 4.77055 11.9313 4.93652 11.8089 5.05889C11.6865 5.18125 11.5206 5.25 11.3475 5.25H8.1525C7.97945 5.25 7.81348 5.18125 7.69111 5.05889C7.56875 4.93652 7.5 4.77055 7.5 4.5975V0.75Z" fill="#A3A3A3"/>
<path d="M8.25 19.5H2.25C1.65326 19.5 1.08097 19.2629 0.65901 18.841C0.237053 18.419 0 17.8467 0 17.25L0 2.25C0 1.65326 0.237053 1.08097 0.65901 0.65901C1.08097 0.237053 1.65326 0 2.25 0L17.25 0C17.8467 0 18.419 0.237053 18.841 0.65901C19.2629 1.08097 19.5 1.65326 19.5 2.25V8.25C19.5 8.44891 19.421 8.63968 19.2803 8.78033C19.1397 8.92098 18.9489 9 18.75 9C18.5511 9 18.3603 8.92098 18.2197 8.78033C18.079 8.63968 18 8.44891 18 8.25V2.25C18 2.05109 17.921 1.86032 17.7803 1.71967C17.6397 1.57902 17.4489 1.5 17.25 1.5H2.25C2.05109 1.5 1.86032 1.57902 1.71967 1.71967C1.57902 1.86032 1.5 2.05109 1.5 2.25V17.25C1.5 17.4489 1.57902 17.6397 1.71967 17.7803C1.86032 17.921 2.05109 18 2.25 18H8.25C8.44891 18 8.63968 18.079 8.78033 18.2197C8.92098 18.3603 9 18.5511 9 18.75C9 18.9489 8.92098 19.1397 8.78033 19.2803C8.63968 19.421 8.44891 19.5 8.25 19.5Z" fill="black"/>
<path d="M5.25 16.5H3.75C3.55109 16.5 3.36032 16.421 3.21967 16.2803C3.07902 16.1397 3 15.9489 3 15.75C3 15.5511 3.07902 15.3603 3.21967 15.2197C3.36032 15.079 3.55109 15 3.75 15H5.25C5.44891 15 5.63968 15.079 5.78033 15.2197C5.92098 15.3603 6 15.5511 6 15.75C6 15.9489 5.92098 16.1397 5.78033 16.2803C5.63968 16.421 5.44891 16.5 5.25 16.5Z" fill="black"/>
<path d="M17.25 24C15.915 24 14.6099 23.6041 13.4999 22.8624C12.3899 22.1207 11.5247 21.0665 11.0138 19.8331C10.5029 18.5997 10.3693 17.2425 10.6297 15.9331C10.8902 14.6238 11.533 13.421 12.477 12.477C13.421 11.533 14.6238 10.8902 15.9331 10.6297C17.2425 10.3693 18.5997 10.5029 19.8331 11.0138C21.0665 11.5247 22.1207 12.3899 22.8624 13.4999C23.6041 14.6099 24 15.915 24 17.25C24 19.0402 23.2888 20.7571 22.023 22.023C20.7571 23.2888 19.0402 24 17.25 24ZM17.25 12C16.2117 12 15.1966 12.3079 14.3333 12.8848C13.4699 13.4617 12.797 14.2816 12.3996 15.2409C12.0023 16.2002 11.8983 17.2558 12.1009 18.2742C12.3035 19.2926 12.8035 20.2281 13.5377 20.9623C14.2719 21.6965 15.2074 22.1966 16.2258 22.3991C17.2442 22.6017 18.2998 22.4977 19.2591 22.1004C20.2184 21.703 21.0383 21.0301 21.6152 20.1667C22.1921 19.3034 22.5 18.2884 22.5 17.25C22.5 15.8576 21.9469 14.5223 20.9623 13.5377C19.9777 12.5531 18.6424 12 17.25 12Z" fill="black"/>
<path d="M15.0004 20.25C14.9017 20.2506 14.8039 20.2317 14.7125 20.1943C14.6211 20.157 14.538 20.102 14.4679 20.0325C14.3976 19.9628 14.3418 19.8798 14.3038 19.7884C14.2657 19.697 14.2461 19.599 14.2461 19.5C14.2461 19.401 14.2657 19.303 14.3038 19.2116C14.3418 19.1202 14.3976 19.0372 14.4679 18.9675L16.5004 16.9425V14.25C16.5004 14.0511 16.5795 13.8603 16.7201 13.7197C16.8608 13.579 17.0515 13.5 17.2504 13.5C17.4494 13.5 17.6401 13.579 17.7808 13.7197C17.9214 13.8603 18.0004 14.0511 18.0004 14.25V17.25C18.001 17.3487 17.9821 17.4466 17.9448 17.5379C17.9074 17.6293 17.8525 17.7124 17.7829 17.7825L15.5329 20.0325C15.4629 20.102 15.3798 20.157 15.2884 20.1943C15.197 20.2317 15.0991 20.2506 15.0004 20.25Z" fill="#A3A3A3"/>
</g>
<defs>
<clipPath id="clip0_2051_29266">
<rect width="24" height="24" fill="white"/>
</clipPath>
</defs>
</svg>
