<svg width="15" height="14" viewBox="0 0 15 14" fill="none" xmlns="http://www.w3.org/2000/svg">
<g clip-path="url(#clip0_1048_42614)">
<path d="M14.3573 7.15571C14.3573 6.58016 14.3106 6.16016 14.2095 5.72461H7.63727V8.32236H11.495C11.4173 8.96793 10.9973 9.94016 10.0639 10.5935L10.0508 10.6804L12.1288 12.2902L12.2728 12.3046C13.595 11.0835 14.3573 9.28681 14.3573 7.15571Z" fill="#4285F4"/>
<path d="M7.63729 13.9998C9.52727 13.9998 11.1139 13.3776 12.2728 12.3043L10.0639 10.5931C9.47284 11.0054 8.67949 11.2931 7.63729 11.2931C5.78619 11.2931 4.21509 10.0721 3.65504 8.38428L3.57295 8.39125L1.4122 10.0635L1.38394 10.142C2.53504 12.4287 4.89949 13.9998 7.63729 13.9998Z" fill="#34A853"/>
<path d="M3.65502 8.38448C3.50724 7.94893 3.42172 7.48223 3.42172 7.00003C3.42172 6.51778 3.50724 6.05113 3.64724 5.61558L3.64333 5.52282L1.4555 3.82373L1.38392 3.85778C0.909493 4.80668 0.637268 5.87226 0.637268 7.00003C0.637268 8.12781 0.909493 9.19333 1.38392 10.1422L3.65502 8.38448Z" fill="#FBBC05"/>
<path d="M7.63729 2.70665C8.95172 2.70665 9.83836 3.27442 10.3439 3.7489L12.3195 1.82C11.1062 0.692225 9.52727 0 7.63729 0C4.89949 0 2.53504 1.5711 1.38394 3.85775L3.64727 5.61555C4.21509 3.92777 5.78619 2.70665 7.63729 2.70665Z" fill="#EB4335"/>
</g>
<defs>
<clipPath id="clip0_1048_42614">
<rect width="14" height="14" fill="white" transform="translate(0.5)"/>
</clipPath>
</defs>
</svg>
