<svg width="24" height="24" viewBox="0 0 24 24" fill="none" xmlns="http://www.w3.org/2000/svg">
<path d="M24.0001 12.6C24.0407 12.807 24.0005 13.0218 23.8876 13.2L18.0001 21C17.6508 21.4658 17.1979 21.8438 16.6772 22.1041C16.1565 22.3645 15.5823 22.5 15.0001 22.5H8.74514C8.1486 22.5005 7.57669 22.7379 7.15514 23.16L6.53264 23.7825C6.46292 23.8528 6.37997 23.9086 6.28857 23.9467C6.19718 23.9848 6.09915 24.0044 6.00014 24.0044C5.90113 24.0044 5.8031 23.9848 5.71171 23.9467C5.62031 23.9086 5.53736 23.8528 5.46764 23.7825C5.39734 23.7128 5.34155 23.6298 5.30347 23.5384C5.26539 23.4471 5.24579 23.349 5.24579 23.25C5.24579 23.151 5.26539 23.053 5.30347 22.9616C5.34155 22.8702 5.39734 22.7872 5.46764 22.7175L6.09014 22.095C6.43903 21.747 6.8531 21.4712 7.30866 21.2833C7.76422 21.0954 8.25235 20.9991 8.74514 21H15.0001C15.3494 21 15.6939 20.9187 16.0064 20.7625C16.3188 20.6063 16.5906 20.3795 16.8001 20.1L22.1026 13.035C21.7005 12.9311 21.2774 12.9406 20.8802 13.0624C20.4831 13.1842 20.1274 13.4135 19.8526 13.725L16.4101 17.6475C16.3406 17.7589 16.2431 17.8501 16.1272 17.9119C16.0114 17.9738 15.8814 18.0042 15.7501 18H9.75014C9.55123 18 9.36046 17.921 9.21981 17.7803C9.07916 17.6397 9.00014 17.4489 9.00014 17.25C9.00014 17.0511 9.07916 16.8603 9.21981 16.7197C9.36046 16.579 9.55123 16.5 9.75014 16.5H15.0001C15.0001 16.1022 14.8421 15.7207 14.5608 15.4394C14.2795 15.1581 13.898 15 13.5001 15H12.8026C12.13 15.0017 11.4721 14.8033 10.9126 14.43C9.8511 13.7202 8.57605 13.401 7.30528 13.5268C6.0345 13.6527 4.84684 14.2158 3.94514 15.12L1.28264 17.7825C1.14141 17.9237 0.949865 18.0031 0.750139 18.0031C0.550413 18.0031 0.358867 17.9237 0.217639 17.7825C0.0764112 17.6413 -0.00292969 17.4497 -0.00292969 17.25C-0.00292969 17.0503 0.0764112 16.8587 0.217639 16.7175L2.88014 14.055C4.02955 12.9082 5.54027 12.1943 7.15605 12.0343C8.77184 11.8744 10.3932 12.2783 11.7451 13.1775C12.058 13.3872 12.426 13.4994 12.8026 13.5H13.5001C14.1141 13.5034 14.7123 13.695 15.2139 14.0491C15.7155 14.4031 16.0964 14.9026 16.3051 15.48L18.7051 12.75C19.3038 12.0663 20.1304 11.6232 21.0312 11.5032C21.9321 11.3832 22.8458 11.5944 23.6026 12.0975C23.7942 12.2084 23.9364 12.388 24.0001 12.6Z" fill="black"/>
<path d="M12 0.75H15V3C15 3.19891 14.921 3.38968 14.7803 3.53033C14.6397 3.67098 14.4489 3.75 14.25 3.75H12.75C12.5511 3.75 12.3603 3.67098 12.2197 3.53033C12.079 3.38968 12 3.19891 12 3V0.75Z" fill="#A3A3A3"/>
<path d="M16.5 10.5H10.5C9.90326 10.5 9.33097 10.2629 8.90901 9.84099C8.48705 9.41903 8.25 8.84674 8.25 8.25V2.25C8.25 1.65326 8.48705 1.08097 8.90901 0.65901C9.33097 0.237053 9.90326 0 10.5 0L16.5 0C17.0967 0 17.669 0.237053 18.091 0.65901C18.5129 1.08097 18.75 1.65326 18.75 2.25V8.25C18.75 8.84674 18.5129 9.41903 18.091 9.84099C17.669 10.2629 17.0967 10.5 16.5 10.5ZM10.5 1.5C10.3011 1.5 10.1103 1.57902 9.96967 1.71967C9.82902 1.86032 9.75 2.05109 9.75 2.25V8.25C9.75 8.44891 9.82902 8.63968 9.96967 8.78033C10.1103 8.92098 10.3011 9 10.5 9H16.5C16.6989 9 16.8897 8.92098 17.0303 8.78033C17.171 8.63968 17.25 8.44891 17.25 8.25V2.25C17.25 2.05109 17.171 1.86032 17.0303 1.71967C16.8897 1.57902 16.6989 1.5 16.5 1.5H10.5Z" fill="black"/>
</svg>
