<svg width="17" height="16" viewBox="0 0 17 16" fill="none" xmlns="http://www.w3.org/2000/svg">
<g clip-path="url(#clip0_332_68268)">
<path fill-rule="evenodd" clip-rule="evenodd" d="M8.5 0C6.32733 0 6.05499 0.0093324 5.20166 0.0479991C4.34999 0.0869991 3.76833 0.222332 3.25966 0.419998C2.73366 0.624332 2.28733 0.898 1.843 1.34267C1.398 1.78733 1.12434 2.23367 0.920003 2.75967C0.722337 3.26867 0.586671 3.85 0.548004 4.70167C0.509337 5.555 0.5 5.82733 0.5 8C0.5 10.1727 0.509337 10.445 0.548004 11.2983C0.587004 12.15 0.722337 12.7317 0.920003 13.2403C1.12434 13.7663 1.39801 14.2127 1.84267 14.657C2.28734 15.102 2.73366 15.3757 3.25966 15.5803C3.76866 15.7777 4.34999 15.913 5.20166 15.952C6.05499 15.9907 6.32733 16 8.5 16C10.6727 16 10.945 15.9907 11.7983 15.952C12.65 15.913 13.2317 15.7777 13.7403 15.58C14.2663 15.3757 14.7127 15.102 15.157 14.6573C15.602 14.2127 15.8757 13.7663 16.0803 13.2403C16.2777 12.7313 16.413 12.15 16.452 11.2983C16.4907 10.445 16.5 10.1727 16.5 8C16.5 5.82733 16.4907 5.555 16.452 4.70167C16.413 3.85 16.2777 3.26834 16.08 2.75967C15.8757 2.23367 15.602 1.78734 15.1573 1.343C14.7127 0.898002 14.2663 0.624332 13.7403 0.419998C13.2313 0.222332 12.65 0.0866657 11.7983 0.0479991C10.945 0.0093324 10.6727 0 8.5 0ZM8.5 1.44134C10.636 1.44134 10.889 1.44967 11.7327 1.488C12.5127 1.52367 12.936 1.654 13.2183 1.76367C13.5917 1.90867 13.8583 2.082 14.1383 2.362C14.418 2.642 14.5913 2.90866 14.7363 3.282C14.8463 3.56366 14.9763 3.98733 15.012 4.76733C15.0503 5.61067 15.0587 5.864 15.0587 8C15.0587 10.136 15.0503 10.389 15.012 11.2327C14.9763 12.0127 14.846 12.436 14.7363 12.7183C14.5913 13.0917 14.418 13.3583 14.138 13.6383C13.858 13.918 13.5913 14.0913 13.218 14.2363C12.9363 14.3463 12.5127 14.4763 11.7327 14.512C10.8893 14.5503 10.636 14.5587 8.5 14.5587C6.36367 14.5587 6.11067 14.5503 5.26733 14.512C4.48733 14.4763 4.064 14.346 3.78167 14.2363C3.40833 14.0913 3.14166 13.918 2.86166 13.638C2.582 13.358 2.40866 13.0913 2.26366 12.718C2.15366 12.4363 2.02366 12.0127 1.988 11.2327C1.94966 10.3893 1.94134 10.136 1.94134 8C1.94134 5.864 1.94966 5.611 1.988 4.76733C2.02366 3.98733 2.154 3.564 2.26366 3.28167C2.40866 2.90833 2.582 2.64167 2.862 2.36167C3.142 2.082 3.40867 1.90867 3.782 1.76367C4.06367 1.65367 4.48733 1.52367 5.26733 1.488C6.11067 1.44967 6.364 1.44134 8.5 1.44134ZM8.5 3.892C6.231 3.892 4.392 5.731 4.392 8C4.392 10.269 6.231 12.108 8.5 12.108C10.769 12.108 12.608 10.269 12.608 8C12.608 5.731 10.769 3.892 8.5 3.892ZM8.5 10.6667C7.79276 10.6667 7.11448 10.3857 6.61438 9.88562C6.11428 9.38552 5.83333 8.70724 5.83333 8C5.83333 7.29276 6.11428 6.61448 6.61438 6.11438C7.11448 5.61428 7.79276 5.33333 8.5 5.33333C9.20724 5.33333 9.88552 5.61428 10.3856 6.11438C10.8857 6.61448 11.1667 7.29276 11.1667 8C11.1667 8.70724 10.8857 9.38552 10.3856 9.88562C9.88552 10.3857 9.20724 10.6667 8.5 10.6667ZM13.7303 3.72967C13.7303 3.98427 13.6292 4.22845 13.4492 4.40849C13.2691 4.58852 13.0249 4.68967 12.7703 4.68967C12.5157 4.68967 12.2715 4.58852 12.0915 4.40849C11.9115 4.22845 11.8103 3.98427 11.8103 3.72967C11.8103 3.47506 11.9115 3.23088 12.0915 3.05084C12.2715 2.87081 12.5157 2.76967 12.7703 2.76967C13.0249 2.76967 13.2691 2.87081 13.4492 3.05084C13.6292 3.23088 13.7303 3.47506 13.7303 3.72967Z" fill="#B0B0B0"/>
</g>
<defs>
<clipPath id="clip0_332_68268">
<rect width="16" height="16" fill="white" transform="translate(0.5)"/>
</clipPath>
</defs>
</svg>
