<svg width="39" height="25" viewBox="0 0 39 25" fill="none" xmlns="http://www.w3.org/2000/svg">
<g clip-path="url(#clip0_1742_14985)">
<path opacity="0.07" d="M35.6667 0.699219H3.66675C1.96675 0.699219 0.666748 1.99922 0.666748 3.69922V21.6992C0.666748 23.3992 2.06675 24.6992 3.66675 24.6992H35.6667C37.3667 24.6992 38.6667 23.3992 38.6667 21.6992V3.69922C38.6667 1.99922 37.2667 0.699219 35.6667 0.699219Z" fill="black"/>
<path d="M35.6667 1.69922C36.7667 1.69922 37.6667 2.59922 37.6667 3.69922V21.6992C37.6667 22.7992 36.7667 23.6992 35.6667 23.6992H3.66675C2.56675 23.6992 1.66675 22.7992 1.66675 21.6992V3.69922C1.66675 2.59922 2.56675 1.69922 3.66675 1.69922H35.6667Z" fill="white"/>
<path fill-rule="evenodd" clip-rule="evenodd" d="M8.98597 4.69922C9.66245 4.69922 10.2108 5.24762 10.2108 5.9241V6.15377H16.3146C17.2015 6.15377 17.6041 6.41854 18.3021 7.33592L19.5468 9.06288H30.6863C31.4278 9.06288 32.029 9.67581 32.029 10.4318V19.3303C32.029 20.0863 31.4278 20.6992 30.6863 20.6992H15.9171C15.1756 20.6992 14.5745 20.0863 14.5745 19.3303V15.2727H13.5072C12.8676 15.2727 12.2583 14.9814 11.6915 14.505C11.5634 14.3973 11.4435 14.285 11.3324 14.1709L11.1388 13.9607L11.0928 13.907L10.185 13.9076C10.069 14.4635 9.57626 14.8811 8.98597 14.8811H8.52664C7.85015 14.8811 7.30176 14.3326 7.30176 13.6561V5.9241C7.30176 5.24762 7.85015 4.69922 8.52664 4.69922H8.98597ZM10.2108 13.1805H11.4511L11.5842 13.3596L11.6625 13.4545C11.6788 13.4735 11.6967 13.494 11.7161 13.5158C11.8472 13.6633 11.9963 13.8111 12.1594 13.9482C12.5626 14.2871 12.9768 14.4998 13.375 14.5389L13.5072 14.5455H14.5745V12.5147L14.0901 12.5149C13.2863 12.5149 12.716 12.2381 12.3757 11.7584L12.3063 11.6525C12.1214 11.3468 12.0478 11.0394 12.0323 10.7365L12.0291 10.607H12.7563C12.7563 10.8309 12.7999 11.0634 12.9286 11.276C13.1069 11.5708 13.4197 11.7551 13.9423 11.7837L14.0901 11.7876H15.5039L16.6422 12.8261C17.0543 13.1259 17.6676 13.134 18.1644 12.893C18.5517 12.7051 18.6349 12.5307 18.5134 12.4202L16.0248 10.1563L16.029 9.22631V9.06288H18.6895L17.7561 7.76787C17.1889 7.02359 16.9611 6.8738 16.3146 6.8738H10.2108V13.1805ZM8.98597 5.31166H8.52664C8.21442 5.31166 7.95676 5.5453 7.91897 5.84728L7.9142 5.9241V13.6561C7.9142 13.9684 8.14783 14.226 8.44981 14.2638L8.52664 14.2686H8.98597C9.29819 14.2686 9.55584 14.035 9.59363 13.733L9.59841 13.6561V5.9241C9.59841 5.61188 9.36477 5.35423 9.06279 5.31643L8.98597 5.31166ZM15.3017 19.2932V12.5869L16.1836 13.3892L16.3134 13.4767C16.9741 13.8859 17.8047 13.8758 18.4819 13.5473C19.2609 13.1695 19.6108 12.4354 19.0028 11.8823L16.7031 9.7901H30.6351C31.0032 9.7901 31.3017 10.094 31.3017 10.4689V19.2932C31.3017 19.668 31.0032 19.9719 30.6351 19.9719H15.9684C15.6002 19.9719 15.3017 19.668 15.3017 19.2932Z" fill="#E71313"/>
<path d="M23.3016 18.5169C25.3099 18.5169 26.938 16.8888 26.938 14.8805C26.938 12.8722 25.3099 11.2441 23.3016 11.2441C21.2933 11.2441 19.6653 12.8722 19.6653 14.8805C19.6653 16.8888 21.2933 18.5169 23.3016 18.5169Z" fill="#EC4242"/>
<path d="M23.9876 14.7627L22.7945 14.4753C22.6177 14.4324 22.4939 14.2944 22.4939 14.1395C22.4939 13.9469 22.6795 13.7904 22.9074 13.7904H23.6531C23.8195 13.7904 23.9779 13.834 24.1102 13.9152C24.1707 13.9521 24.2561 13.9401 24.3091 13.8954L24.5397 13.7008C24.6104 13.641 24.5991 13.5436 24.5198 13.4923C24.272 13.3319 23.9707 13.2449 23.6531 13.2449H23.6252V12.8356C23.6252 12.7603 23.5529 12.6992 23.4636 12.6992H23.1404C23.0511 12.6992 22.9787 12.7603 22.9787 12.8356V13.2448H22.9074C22.2895 13.2448 21.7937 13.693 21.8521 14.2245C21.8937 14.6023 22.2371 14.9084 22.6693 15.0124L23.8095 15.287C23.9862 15.33 24.1101 15.4679 24.1101 15.6228C24.1101 15.8155 23.9244 15.9719 23.6965 15.9719H22.9508C22.7844 15.9719 22.6261 15.9283 22.4937 15.8472C22.4333 15.8101 22.3479 15.8223 22.2949 15.8669L22.0642 16.0616C21.9935 16.1212 22.0048 16.2186 22.0842 16.2701C22.3319 16.4305 22.6333 16.5174 22.9508 16.5174H22.9787V16.9265C22.9787 17.0018 23.0511 17.0629 23.1404 17.0629H23.4636C23.5529 17.0629 23.6252 17.0018 23.6252 16.9265V16.5174H23.6527C24.1135 16.5174 24.5482 16.2858 24.6975 15.9179C24.9026 15.4126 24.5505 14.8987 23.9876 14.7627Z" fill="white"/>
</g>
<defs>
<clipPath id="clip0_1742_14985">
<rect width="38" height="24" fill="white" transform="translate(0.666748 0.699219)"/>
</clipPath>
</defs>
</svg>
