<svg width="39" height="25" viewBox="0 0 39 25" fill="none" xmlns="http://www.w3.org/2000/svg">
<g clip-path="url(#clip0_1742_14992)">
<path d="M35.6667 0.699219H3.66675C1.96675 0.699219 0.666748 1.99922 0.666748 3.69922V21.6992C0.666748 23.3992 2.06675 24.6992 3.66675 24.6992H35.6667C37.3667 24.6992 38.6667 23.3992 38.6667 21.6992V3.69922C38.6667 1.99922 37.2667 0.699219 35.6667 0.699219Z" fill="black"/>
<path d="M35.6667 1.69922C36.7667 1.69922 37.6667 2.59922 37.6667 3.69922V21.6992C37.6667 22.7992 36.7667 23.6992 35.6667 23.6992H3.66675C2.56675 23.6992 1.66675 22.7992 1.66675 21.6992V3.69922C1.66675 2.59922 2.56675 1.69922 3.66675 1.69922H35.6667Z" fill="white"/>
<path d="M28.9667 10.7992H28.6667C28.2667 11.7992 27.9667 12.2992 27.6667 13.7992H29.5667C29.2667 12.2992 29.2667 11.5992 28.9667 10.7992ZM31.8667 16.6992H30.1667C30.0667 16.6992 30.0667 16.6992 29.9667 16.5992L29.7667 15.6992L29.6667 15.4992H27.2667C27.1667 15.4992 27.0667 15.4992 27.0667 15.6992L26.7667 16.5992C26.7667 16.6992 26.6667 16.6992 26.6667 16.6992H24.5667L24.7667 16.1992L27.6667 9.39922C27.6667 8.89922 27.9667 8.69922 28.4667 8.69922H29.9667C30.0667 8.69922 30.1667 8.69922 30.1667 8.89922L31.5667 15.3992C31.6667 15.7992 31.7667 16.0992 31.7667 16.4992C31.8667 16.5992 31.8667 16.5992 31.8667 16.6992ZM18.4667 16.3992L18.8667 14.5992C18.9667 14.5992 19.0667 14.6992 19.0667 14.6992C19.7667 14.9992 20.4667 15.1992 21.1667 15.0992C21.3667 15.0992 21.6667 14.9992 21.8667 14.8992C22.3667 14.6992 22.3667 14.1992 21.9667 13.7992C21.7667 13.5992 21.4667 13.4992 21.1667 13.2992C20.7667 13.0992 20.3667 12.8992 20.0667 12.5992C18.8667 11.5992 19.2667 10.1992 19.9667 9.49922C20.5667 9.09922 20.8667 8.69922 21.6667 8.69922C22.8667 8.69922 24.1667 8.69922 24.7667 8.89922H24.8667C24.7667 9.49922 24.6667 9.99922 24.4667 10.5992C23.9667 10.3992 23.4667 10.1992 22.9667 10.1992C22.6667 10.1992 22.3667 10.1992 22.0667 10.2992C21.8667 10.2992 21.7667 10.3992 21.6667 10.4992C21.4667 10.6992 21.4667 10.9992 21.6667 11.1992L22.1667 11.5992C22.5667 11.7992 22.9667 11.9992 23.2667 12.1992C23.7667 12.4992 24.2667 12.9992 24.3667 13.5992C24.5667 14.4992 24.2667 15.2992 23.4667 15.8992C22.9667 16.2992 22.7667 16.4992 22.0667 16.4992C20.6667 16.4992 19.5667 16.5992 18.6667 16.2992C18.5667 16.4992 18.5667 16.4992 18.4667 16.3992ZM14.9667 16.6992C15.0667 15.9992 15.0667 15.9992 15.1667 15.6992C15.6667 13.4992 16.1667 11.1992 16.5667 8.99922C16.6667 8.79922 16.6667 8.69922 16.8667 8.69922H18.6667C18.4667 9.89922 18.2667 10.7992 17.9667 11.8992C17.6667 13.3992 17.3667 14.8992 16.9667 16.3992C16.9667 16.5992 16.8667 16.5992 16.6667 16.5992M5.66675 8.89922C5.66675 8.79922 5.86675 8.69922 5.96675 8.69922H9.36675C9.86675 8.69922 10.2667 8.99922 10.3667 9.49922L11.2667 13.8992C11.2667 13.9992 11.2667 13.9992 11.3667 14.0992C11.3667 13.9992 11.4667 13.9992 11.4667 13.9992L13.5667 8.89922C13.4667 8.79922 13.5667 8.69922 13.6667 8.69922H15.7667C15.7667 8.79922 15.7667 8.79922 15.6667 8.89922L12.5667 16.1992C12.4667 16.3992 12.4667 16.4992 12.3667 16.5992C12.2667 16.6992 12.0667 16.5992 11.8667 16.5992H10.3667C10.2667 16.5992 10.1667 16.5992 10.1667 16.3992L8.56675 10.1992C8.36675 9.99922 8.06675 9.69922 7.66675 9.59922C7.06675 9.29922 5.96675 9.09922 5.76675 9.09922L5.66675 8.89922Z" fill="#142688"/>
</g>
<defs>
<clipPath id="clip0_1742_14992">
<rect width="38" height="24" fill="white" transform="translate(0.666748 0.699219)"/>
</clipPath>
</defs>
</svg>
