<?xml version="1.0" encoding="utf-8"?>
<!-- Generator: Adobe Illustrator 21.0.2, SVG Export Plug-In . SVG Version: 6.00 Build 0)  -->
<svg version="1.1" id="Layer_1" xmlns="http://www.w3.org/2000/svg" xmlns:xlink="http://www.w3.org/1999/xlink" x="0px" y="0px"
	 viewBox="0 0 80 38" style="enable-background:new 0 0 80 38;" xml:space="preserve">
<style type="text/css">
	.st0{fill:#005691;}
	.st1{fill:#27AAE1;}
</style>
<g>
	<g>
		<path class="st0" d="M6.2,7.6H1.4v21.5l0,0C1.6,29.7,2,30,2.7,30c0.6,0,1.1-0.3,1.3-0.9l0,0v-8.6h2c1.4,0,2.6-0.5,3.5-1.6
			c0.9-1,1.3-2.4,1.3-4v-1.7C10.8,9.5,9.3,7.6,6.2,7.6z M6,18.2H4V9.9h2.3c1.3,0,2,1.1,2,3.3v1.7C8.3,17.2,7.5,18.2,6,18.2z"/>
		<path class="st0" d="M57.8,17.3c-0.7-1.6-2-2.5-4-2.5c-2,0-3.3,0.8-4.1,2.5c-0.5,1.1-0.7,2.8-0.7,5.2c0,2.3,0.2,4.1,0.7,5.2
			c0.7,1.7,1.9,2.6,3.8,2.6c2,0,3.4-0.8,4.1-2.5c0.5-1,0.7-2.8,0.7-5.3C58.3,20.1,58.1,18.3,57.8,17.3z M51.7,19
			c0.3-1.2,0.9-1.8,2.1-1.8c1,0,1.6,0.6,1.9,1.9c0.1,0.5,0.2,1.6,0.2,3.4c0,1.8-0.1,2.9-0.2,3.5c-0.3,1.3-0.9,2-2,2
			c-1.4,0-2.2-1.8-2.2-5.4C51.6,20.8,51.6,19.6,51.7,19z"/>
		<path class="st0" d="M14.8,14.8c-1.3,0-1.5,0.7-1.5,1.1c0,0.4,0.2,0.8,0.6,1.1c0.2,0.1,0.5,0.2,1,0.2l0.1,0c1.3,0,3.7,1.1,3.7,3.3
			v0.8c-1-0.5-2-0.8-3-0.8c-2.6,0-3.9,1.8-3.9,5.4v0.1c0,1.3,0.3,2.3,1,3c0.7,0.7,1.5,1.1,2.5,1.1c1.3,0,2.4-0.5,3.4-1.6v0.7l0,0
			C19,29.7,19.4,30,20,30c0.6,0,1-0.3,1.3-0.9l0,0v-8.7C21.3,16.7,18,14.8,14.8,14.8z M14.4,25.8c0-3.1,1.3-3.1,1.7-3.1
			c0.6,0,1.5,0.3,2.6,0.9v2.3c-0.6,1.2-1.6,1.7-2.8,1.7c-1,0-1.5-0.4-1.5-1.3V25.8z"/>
		<path class="st0" d="M41.8,14.8c-2,0-3.3,0.8-4.1,2.5c-0.5,1.1-0.7,2.9-0.7,5.2c0,2.3,0.2,4,0.7,5.2c0.7,1.7,2,2.6,3.8,2.6
			c2,0,3.4-0.8,4.1-2.5c0.5-1.1,0.7-2.9,0.7-5.2c0-2.3-0.2-4.1-0.6-5.2C45,15.7,43.7,14.8,41.8,14.8z M39.7,19
			c0.3-1.2,0.9-1.8,2-1.8c1,0,1.7,0.6,1.9,1.9c0.1,0.5,0.1,1.6,0.1,3.4c0,1.8,0,2.9-0.1,3.5c-0.3,1.3-1,2-2,2
			c-1.4,0-2.1-1.8-2.1-5.4C39.5,20.2,39.6,19.3,39.7,19z"/>
		<path class="st0" d="M32.3,15.4L32.3,15.4c-0.6,0.1-1,0.4-1.2,0.9l0,0v10.6c-1.3,0.7-2.1,0.8-2.5,0.8c-0.4,0-1.4,0-1.4-3v-8.4l0,0
			c-0.3-0.6-0.7-0.9-1.3-0.9h0c-0.6,0.1-1,0.3-1.3,0.9l0,0v8.4c0,3.5,1.2,5.3,3.6,5.3c0.8,0,1.8-0.3,2.9-0.8v3.4c0,1-0.2,1.6-0.5,2
			c-0.4,0.5-0.6,0.8-0.6,1.1c0,0.6,0.3,1,0.9,1.3l0,0h0c0.8,0,1.5-0.5,2-1.4c0.5-0.7,0.7-1.6,0.7-2.5V16.3l0,0
			C33.4,15.7,32.9,15.4,32.3,15.4z"/>
	</g>
	<path class="st1" d="M69,14.4c0.2,0.8,1.3,1.3,2.6,1.1c1.3-0.2,2.1-0.9,1.9-1.7c-0.2-0.8-1.4-1.3-2.6-1.1
		C69.7,12.8,68.8,13.6,69,14.4 M77,14.4c0.9-0.1,1.6-0.7,1.4-1.3c-0.2-0.6-1-1-2-0.8c-0.9,0.1-1.6,0.7-1.4,1.3
		C75.2,14.2,76,14.5,77,14.4 M50.6,3.1c1-0.1,1.6-0.7,1.5-1.3c-0.1-0.6-1-1-2-0.9c-1,0.1-1.6,0.7-1.5,1.3
		C48.8,2.9,49.7,3.2,50.6,3.1 M66.2,19.1c-1.3-0.6-3.1-0.3-4,0.5c-0.9,0.9-0.7,2,0.6,2.5c1.3,0.5,3.1,0.3,4-0.5
		C67.8,20.8,67.5,19.7,66.2,19.1 M67.5,14.6c-0.2-1-1.7-1.6-3.3-1.4c-1.6,0.2-2.7,1.2-2.4,2.2c0.2,1,1.7,1.6,3.3,1.4
		C66.7,16.5,67.7,15.5,67.5,14.6 M66.2,5.3C67,5.6,68.1,5.5,68.7,5c0.6-0.5,0.4-1.2-0.4-1.5c-0.8-0.3-1.9-0.2-2.4,0.3
		C65.3,4.3,65.5,5,66.2,5.3 M62.6,8.5c1,0.4,2.5,0.3,3.2-0.4c0.8-0.7,0.6-1.6-0.5-2c-1-0.4-2.5-0.3-3.2,0.4
		C61.4,7.2,61.6,8.1,62.6,8.5 M36.5,6.4c-0.8-0.3-1.9-0.2-2.4,0.3c-0.6,0.5-0.4,1.2,0.3,1.5c0.8,0.3,1.9,0.2,2.4-0.3
		C37.4,7.5,37.2,6.8,36.5,6.4 M55.1,9.2c-0.2-1-1.7-1.6-3.3-1.4C50.2,8,49.1,9,49.4,10c0.2,1,1.7,1.6,3.3,1.4
		C54.2,11.2,55.3,10.2,55.1,9.2 M61.7,9.3c-1.3-0.6-3.1-0.3-4,0.5c-0.9,0.8-0.7,2,0.6,2.5c1.3,0.6,3.1,0.3,4-0.5
		C63.3,11,63,9.9,61.7,9.3 M75.4,23.9c-0.8-0.3-1.9-0.2-2.4,0.3c-0.6,0.5-0.4,1.2,0.4,1.5c0.8,0.3,1.9,0.2,2.4-0.3
		C76.3,25,76.1,24.3,75.4,23.9 M71.3,21.8c-1-0.5-2.5-0.3-3.2,0.4c-0.8,0.7-0.5,1.6,0.5,2c1,0.4,2.5,0.3,3.2-0.4
		C72.5,23.1,72.3,22.2,71.3,21.8 M41.3,8c-1-0.4-2.5-0.3-3.3,0.4c-0.7,0.7-0.5,1.6,0.5,2c1.1,0.4,2.5,0.3,3.2-0.4
		C42.5,9.4,42.3,8.5,41.3,8 M51.6,6.9c1.3-0.2,2.1-0.9,1.9-1.7c-0.2-0.8-1.4-1.3-2.6-1.1c-1.3,0.2-2.1,0.9-1.9,1.7
		C49.1,6.5,50.3,7,51.6,6.9 M43.6,13.1c1.3,0.5,3.1,0.3,4-0.5c0.9-0.8,0.7-2-0.6-2.5c-1.3-0.5-3.1-0.3-4,0.5
		C42,11.4,42.3,12.6,43.6,13.1"/>
	<g>
		<path class="st0" d="M76.9,2.2c-1,0-1.8,0.8-1.8,1.8c0,1,0.8,1.8,1.8,1.8c1,0,1.8-0.8,1.8-1.8C78.6,2.9,77.8,2.2,76.9,2.2z
			 M76.9,5.3c-0.8,0-1.4-0.6-1.4-1.4c0-0.8,0.6-1.4,1.4-1.4c0.8,0,1.4,0.6,1.4,1.4C78.3,4.7,77.6,5.3,76.9,5.3z"/>
		<path class="st0" d="M77.3,3.9L77.3,3.9c0.2-0.1,0.4-0.2,0.4-0.4c0-0.1-0.1-0.2-0.2-0.3c-0.2-0.1-0.4-0.1-0.7-0.1
			c-0.3,0-0.5,0-0.7,0l0,1.5l0.5,0l0-0.6l0.2,0c0.2,0,0.3,0.1,0.4,0.2c0.1,0.2,0.1,0.3,0.2,0.4l0.5,0c0-0.1-0.1-0.3-0.2-0.4
			C77.6,4.1,77.5,3.9,77.3,3.9z M76.8,3.8l-0.2,0l0-0.4c0,0,0.1,0,0.2,0c0.2,0,0.4,0.1,0.4,0.2C77.2,3.7,77.1,3.8,76.8,3.8z"/>
	</g>
</g>
</svg>
