<svg width="24" height="24" viewBox="0 0 24 24" fill="none" xmlns="http://www.w3.org/2000/svg">
<path d="M13.6575 24H5.8425C4.89032 23.998 3.9777 23.6189 3.30441 22.9456C2.63111 22.2723 2.25198 21.3597 2.25 20.4075V3.5925C2.25198 2.64032 2.63111 1.7277 3.30441 1.05441C3.9777 0.381112 4.89032 0.00198165 5.8425 0L13.6575 0C14.6097 0.00198165 15.5223 0.381112 16.1956 1.05441C16.8689 1.7277 17.248 2.64032 17.25 3.5925V3.75C17.25 3.94891 17.171 4.13968 17.0303 4.28033C16.8897 4.42098 16.6989 4.5 16.5 4.5C16.3011 4.5 16.1103 4.42098 15.9697 4.28033C15.829 4.13968 15.75 3.94891 15.75 3.75V3.5925C15.75 3.03753 15.5295 2.5053 15.1371 2.11288C14.7447 1.72046 14.2125 1.5 13.6575 1.5H5.8425C5.28753 1.5 4.7553 1.72046 4.36288 2.11288C3.97046 2.5053 3.75 3.03753 3.75 3.5925V20.4075C3.75 20.9625 3.97046 21.4947 4.36288 21.8871C4.7553 22.2795 5.28753 22.5 5.8425 22.5H13.6575C14.2125 22.5 14.7447 22.2795 15.1371 21.8871C15.5295 21.4947 15.75 20.9625 15.75 20.4075V18.75C15.75 18.5511 15.829 18.3603 15.9697 18.2197C16.1103 18.079 16.3011 18 16.5 18C16.6989 18 16.8897 18.079 17.0303 18.2197C17.171 18.3603 17.25 18.5511 17.25 18.75V20.4075C17.248 21.3597 16.8689 22.2723 16.1956 22.9456C15.5223 23.6189 14.6097 23.998 13.6575 24Z" fill="black"/>
<path d="M9.75 21C9.45333 21 9.16332 20.912 8.91665 20.7472C8.66997 20.5824 8.47771 20.3481 8.36418 20.074C8.25065 19.7999 8.22094 19.4983 8.27882 19.2074C8.3367 18.9164 8.47956 18.6491 8.68934 18.4393C8.89912 18.2296 9.16639 18.0867 9.45737 18.0288C9.74834 17.9709 10.0499 18.0006 10.324 18.1142C10.5981 18.2277 10.8324 18.42 10.9972 18.6666C11.162 18.9133 11.25 19.2033 11.25 19.5C11.25 19.8978 11.092 20.2794 10.8107 20.5607C10.5294 20.842 10.1478 21 9.75 21Z" fill="#A3A3A3"/>
<path d="M12 4.5H7.5C7.30109 4.5 7.11032 4.42098 6.96967 4.28033C6.82902 4.13968 6.75 3.94891 6.75 3.75C6.75 3.55109 6.82902 3.36032 6.96967 3.21967C7.11032 3.07902 7.30109 3 7.5 3H12C12.1989 3 12.3897 3.07902 12.5303 3.21967C12.671 3.36032 12.75 3.55109 12.75 3.75C12.75 3.94891 12.671 4.13968 12.5303 4.28033C12.3897 4.42098 12.1989 4.5 12 4.5Z" fill="black"/>
<path d="M17.25 6H15.75C15.3358 6 15 6.33579 15 6.75V9C15 9.41421 15.3358 9.75 15.75 9.75H17.25C17.6642 9.75 18 9.41421 18 9V6.75C18 6.33579 17.6642 6 17.25 6Z" fill="#A3A3A3"/>
<path d="M19.5 16.5H13.5C12.9033 16.5 12.331 16.2629 11.909 15.841C11.4871 15.419 11.25 14.8467 11.25 14.25V8.25C11.25 7.65326 11.4871 7.08097 11.909 6.65901C12.331 6.23705 12.9033 6 13.5 6H19.5C20.0967 6 20.669 6.23705 21.091 6.65901C21.5129 7.08097 21.75 7.65326 21.75 8.25V14.25C21.75 14.8467 21.5129 15.419 21.091 15.841C20.669 16.2629 20.0967 16.5 19.5 16.5ZM13.5 7.5C13.3011 7.5 13.1103 7.57902 12.9697 7.71967C12.829 7.86032 12.75 8.05109 12.75 8.25V14.25C12.75 14.4489 12.829 14.6397 12.9697 14.7803C13.1103 14.921 13.3011 15 13.5 15H19.5C19.6989 15 19.8897 14.921 20.0303 14.7803C20.171 14.6397 20.25 14.4489 20.25 14.25V8.25C20.25 8.05109 20.171 7.86032 20.0303 7.71967C19.8897 7.57902 19.6989 7.5 19.5 7.5H13.5Z" fill="black"/>
<path d="M15.75 13.5H15C14.8011 13.5 14.6103 13.421 14.4697 13.2803C14.329 13.1397 14.25 12.9489 14.25 12.75C14.25 12.5511 14.329 12.3603 14.4697 12.2197C14.6103 12.079 14.8011 12 15 12H15.75C15.9489 12 16.1397 12.079 16.2803 12.2197C16.421 12.3603 16.5 12.5511 16.5 12.75C16.5 12.9489 16.421 13.1397 16.2803 13.2803C16.1397 13.421 15.9489 13.5 15.75 13.5Z" fill="black"/>
</svg>
