<svg width="24" height="24" viewBox="0 0 24 24" fill="none" xmlns="http://www.w3.org/2000/svg">
<path d="M10.5 7.5H13.5V9.75C13.5 9.94891 13.421 10.1397 13.2803 10.2803C13.1397 10.421 12.9489 10.5 12.75 10.5H11.25C11.0511 10.5 10.8603 10.421 10.7197 10.2803C10.579 10.1397 10.5 9.94891 10.5 9.75V7.5Z" fill="#A3A3A3"/>
<path d="M15 17.25H9C8.40326 17.25 7.83097 17.0129 7.40901 16.591C6.98705 16.169 6.75 15.5967 6.75 15V9C6.75 8.40326 6.98705 7.83097 7.40901 7.40901C7.83097 6.98705 8.40326 6.75 9 6.75H15C15.5967 6.75 16.169 6.98705 16.591 7.40901C17.0129 7.83097 17.25 8.40326 17.25 9V15C17.25 15.5967 17.0129 16.169 16.591 16.591C16.169 17.0129 15.5967 17.25 15 17.25ZM9 8.25C8.80109 8.25 8.61032 8.32902 8.46967 8.46967C8.32902 8.61032 8.25 8.80109 8.25 9V15C8.25 15.1989 8.32902 15.3897 8.46967 15.5303C8.61032 15.671 8.80109 15.75 9 15.75H15C15.1989 15.75 15.3897 15.671 15.5303 15.5303C15.671 15.3897 15.75 15.1989 15.75 15V9C15.75 8.80109 15.671 8.61032 15.5303 8.46967C15.3897 8.32902 15.1989 8.25 15 8.25H9Z" fill="black"/>
<path d="M11.25 14.25H10.5C10.3011 14.25 10.1103 14.171 9.96967 14.0303C9.82902 13.8897 9.75 13.6989 9.75 13.5C9.75 13.3011 9.82902 13.1103 9.96967 12.9697C10.1103 12.829 10.3011 12.75 10.5 12.75H11.25C11.4489 12.75 11.6397 12.829 11.7803 12.9697C11.921 13.1103 12 13.3011 12 13.5C12 13.6989 11.921 13.8897 11.7803 14.0303C11.6397 14.171 11.4489 14.25 11.25 14.25Z" fill="black"/>
<path d="M22.5 18.18L21.75 21.18C21.7179 21.3083 21.6524 21.4258 21.5602 21.5207C21.468 21.6155 21.3524 21.6843 21.225 21.72C21.1524 21.7435 21.0762 21.7537 21 21.75C20.9013 21.7506 20.8034 21.7316 20.7121 21.6943C20.6207 21.657 20.5376 21.602 20.4675 21.5325L19.9275 21C19.3109 21.5526 18.637 22.0378 17.9175 22.4475L17.535 22.65C15.8267 23.542 13.9272 24.0053 12 24C8.8174 24 5.76516 22.7357 3.51472 20.4853C1.26428 18.2348 5.61116e-07 15.1826 5.61116e-07 12C-0.000287692 11.0627 0.110485 10.1287 0.330001 9.21749C0.387856 9.03789 0.511283 8.88669 0.675667 8.79406C0.840052 8.70142 1.03331 8.67415 1.21691 8.71768C1.40051 8.76122 1.56096 8.87236 1.66625 9.02894C1.77154 9.18552 1.81394 9.37603 1.785 9.56249C1.59613 10.3612 1.50049 11.1792 1.5 12C1.49946 13.8368 1.98077 15.6416 2.89587 17.2342C3.81097 18.8268 5.12785 20.1515 6.71502 21.0761C8.30219 22.0006 10.1041 22.4926 11.9409 22.5029C13.7777 22.5133 15.585 22.0416 17.1825 21.135L17.25 21.09C17.8271 20.7599 18.3698 20.373 18.87 19.935L18.2175 19.2825C18.1211 19.1863 18.0527 19.0656 18.0197 18.9335C17.9866 18.8014 17.9902 18.6627 18.03 18.5325C18.0657 18.4051 18.1345 18.2895 18.2293 18.1973C18.3242 18.1051 18.4417 18.0396 18.57 18.0075L21.57 17.2575C21.6983 17.2205 21.8341 17.2185 21.9635 17.2516C22.0929 17.2846 22.211 17.3517 22.3058 17.4457C22.4006 17.5397 22.4686 17.6574 22.5027 17.7864C22.5369 17.9155 22.5359 18.0514 22.5 18.18Z" fill="black"/>
<path d="M23.9997 12C24 12.9373 23.8892 13.8713 23.6697 14.7825C23.6301 14.9503 23.5339 15.0993 23.3973 15.2045C23.2607 15.3097 23.0921 15.3646 22.9197 15.36C22.8625 15.3678 22.8044 15.3678 22.7472 15.36C22.5546 15.3137 22.3881 15.1931 22.2841 15.0245C22.1802 14.8558 22.1471 14.6529 22.1922 14.46C22.3904 13.6548 22.4936 12.8292 22.4997 12C22.5003 10.1632 22.0189 8.3584 21.1038 6.76578C20.1887 5.17316 18.8719 3.84845 17.2847 2.92393C15.6975 1.99941 13.8956 1.50742 12.0588 1.49708C10.222 1.48674 8.41469 1.95842 6.81721 2.86501C6.21462 3.2083 5.64911 3.61295 5.12971 4.07251L5.78221 4.71751C5.87862 4.81372 5.94701 4.93436 5.98004 5.06649C6.01308 5.19862 6.00951 5.33725 5.96971 5.46751C5.93399 5.59486 5.86523 5.71051 5.77039 5.80271C5.67556 5.89491 5.55802 5.96039 5.42971 5.99251L2.42971 6.74251L2.24971 6.75001C2.15101 6.75058 2.05316 6.73166 1.96178 6.69434C1.87041 6.65701 1.78729 6.60202 1.71721 6.53251C1.61951 6.4371 1.54971 6.31682 1.51534 6.18465C1.48098 6.05248 1.48336 5.91343 1.52221 5.78251L2.27221 2.78251C2.30549 2.65558 2.37149 2.5396 2.46362 2.44616C2.55574 2.35272 2.67077 2.28509 2.79721 2.25001C2.92747 2.21022 3.0661 2.20665 3.19823 2.23968C3.33037 2.27271 3.45101 2.3411 3.54721 2.43751L4.06471 3.00001C4.68624 2.45232 5.36227 1.9698 6.08221 1.56001C7.90776 0.525224 9.97274 -0.012763 12.0711 -0.000275754C14.1695 0.0122115 16.2279 0.574737 18.041 1.63118C19.8541 2.68761 21.3585 4.20103 22.4041 6.02043C23.4496 7.83982 23.9998 9.90158 23.9997 12Z" fill="black"/>
</svg>
