<svg width="14" height="14" viewBox="0 0 14 14" fill="none" xmlns="http://www.w3.org/2000/svg">
<g clip-path="url(#clip0_1692_61108)">
<path d="M11.3749 13.9563C10.8768 14.3287 7.87497 11.9714 6.99992 11.9663C6.12497 11.9663 3.11719 14.3371 2.62492 13.9563C2.13266 13.5754 3.27798 9.59728 3.09355 8.98625C2.90912 8.37522 -0.193906 5.85786 -7.75587e-05 5.25C0.193794 4.64214 4.09564 4.59497 4.59372 4.22248C5.09179 3.85004 6.3878 -0.00513974 6.99992 5.14486e-06C7.61196 0.00519477 8.91332 3.88216 9.40558 4.26302C9.89784 4.64383 13.8155 4.63897 14 5.25C14.1844 5.86103 11.0441 8.37839 10.8502 8.98625C10.6564 9.59411 11.873 13.5838 11.3749 13.9563Z" fill="black"/>
</g>
<defs>
<clipPath id="clip0_1692_61108">
<rect width="14" height="14" fill="white"/>
</clipPath>
</defs>
</svg>
