<svg width="14" height="14" viewBox="0 0 14 14" fill="none" xmlns="http://www.w3.org/2000/svg">
<g clip-path="url(#clip0_1692_61114)">
<path d="M7.00289 11.4663V11.4663C7.20534 11.4675 7.41692 11.5321 7.59838 11.6019C7.79062 11.6759 8.00065 11.7768 8.2146 11.8888C8.58473 12.0827 9.0007 12.3284 9.40111 12.565C9.46205 12.601 9.52264 12.6368 9.58264 12.6721C10.0476 12.9461 10.4754 13.1929 10.814 13.3493C10.8818 13.3806 10.9421 13.4065 10.9951 13.4273C10.9934 13.3506 10.9879 13.2598 10.978 13.1548C10.9396 12.7464 10.8449 12.216 10.7358 11.6549C10.7046 11.494 10.672 11.3302 10.6397 11.1672C10.5615 10.7739 10.4843 10.385 10.4275 10.0506C10.3872 9.813 10.3547 9.58926 10.3392 9.39982C10.3257 9.23559 10.3161 9.01524 10.3738 8.83435L10.3738 8.83432C10.4298 8.65873 10.5578 8.48775 10.6606 8.36114C10.7779 8.2166 10.9271 8.05416 11.0899 7.88512C11.3119 7.65466 11.5773 7.39326 11.8463 7.12836C11.9696 7.007 12.0935 6.88492 12.2144 6.76474C12.608 6.37339 12.9726 5.99865 13.2261 5.68924C13.3031 5.59527 13.3643 5.51385 13.4109 5.44516C13.3435 5.42379 13.2609 5.40153 13.1623 5.37904C12.7914 5.29445 12.2942 5.22841 11.7609 5.16688C11.6101 5.14948 11.456 5.13241 11.3024 5.11538C10.9263 5.07371 10.5527 5.03231 10.2346 4.98695C10.0094 4.95484 9.79672 4.91875 9.61888 4.8756C9.46584 4.83847 9.2543 4.77813 9.09964 4.65849L9.09962 4.65848C8.95316 4.54516 8.83693 4.36333 8.75513 4.22441C8.66068 4.06401 8.56002 3.86666 8.45757 3.65385C8.3178 3.36349 8.16364 3.02075 8.00735 2.67328C7.93583 2.51428 7.86387 2.35428 7.79263 2.19786C7.56059 1.68834 7.33443 1.21241 7.13282 0.866531C7.08338 0.78172 7.03827 0.709747 6.99777 0.650053C6.95846 0.707733 6.91473 0.777031 6.86684 0.858525C6.66589 1.20052 6.4404 1.6722 6.20859 2.17797C6.13945 2.32881 6.06962 2.48302 6.00013 2.63644C5.84185 2.98594 5.68541 3.33136 5.54342 3.62346C5.44072 3.83475 5.3395 4.03095 5.24419 4.19042C5.16188 4.32815 5.04356 4.51043 4.89317 4.62289L7.00289 11.4663ZM7.00289 11.4663H6.99992C6.79617 11.4663 6.58348 11.5308 6.40173 11.6006C6.20903 11.6746 5.99857 11.7756 5.78432 11.8879C5.41285 12.0826 4.99531 12.3298 4.59374 12.5676C4.5336 12.6032 4.47383 12.6386 4.41462 12.6736C3.94916 12.9485 3.52143 13.1958 3.18331 13.3522C3.1148 13.3838 3.05412 13.4098 3.001 13.4306C3.00145 13.3509 3.00584 13.2558 3.01478 13.1452C3.04784 12.7364 3.13485 12.2063 3.23586 11.6463C3.26671 11.4753 3.29896 11.301 3.331 11.1278C3.40164 10.7461 3.47127 10.3698 3.52273 10.0454C3.56034 9.80834 3.59051 9.58562 3.60475 9.39732C3.6172 9.23273 3.62528 9.01757 3.57222 8.84177C3.51858 8.66405 3.39227 8.49135 3.29116 8.36412C3.17567 8.2188 3.02855 8.05576 2.86818 7.88639C2.64767 7.6535 2.38343 7.38933 2.11605 7.12201C1.99681 7.0028 1.87695 6.88297 1.76006 6.765C1.3722 6.37358 1.01354 5.99935 0.765046 5.69073C0.688581 5.59576 0.628175 5.51383 0.58266 5.44509L7.00289 11.4663ZM2.76443 13.4983C2.7647 13.498 2.76911 13.4974 2.77686 13.4977C2.76804 13.4988 2.76417 13.4986 2.76443 13.4983ZM13.6062 5.52786C13.6059 5.52795 13.6026 5.52591 13.5973 5.52147C13.6039 5.52556 13.6065 5.52777 13.6062 5.52786ZM0.396103 5.52731C0.395801 5.52724 0.39818 5.52518 0.404145 5.52136C0.399387 5.52548 0.396404 5.52739 0.396103 5.52731ZM11.2367 13.4967C11.237 13.4971 11.2332 13.4972 11.2247 13.4962C11.2322 13.4959 11.2364 13.4964 11.2367 13.4967Z" stroke="black" stroke-linejoin="round"/>
<path fill-rule="evenodd" clip-rule="evenodd" d="M4.84955 12.9972C5.71586 12.4843 6.59092 11.9663 6.99992 11.9663V5.14486e-06C6.64654 -0.00296503 6.06523 1.28064 5.54111 2.43798C5.15735 3.28536 4.80425 4.06505 4.59372 4.22248C4.38343 4.37975 3.56642 4.47902 2.67789 4.58699C1.46189 4.73475 0.111942 4.89878 -7.75578e-05 5.25C-0.112147 5.60146 0.877925 6.59126 1.76876 7.48185C2.41867 8.13158 3.01575 8.72851 3.09355 8.98625C3.17119 9.24349 3.01316 10.0975 2.84085 11.0286C2.60387 12.3092 2.3399 13.7357 2.62492 13.9563C2.88707 14.1591 3.86263 13.5815 4.84955 12.9972Z" fill="black"/>
</g>
<defs>
<clipPath id="clip0_1692_61114">
<rect width="14" height="14" fill="white"/>
</clipPath>
</defs>
</svg>
