<svg width="14" height="14" viewBox="0 0 14 14" fill="none" xmlns="http://www.w3.org/2000/svg">
<path d="M7.01168 11.4663V11.4663C7.21413 11.4675 7.42571 11.5321 7.60717 11.6019C7.79941 11.6759 8.00944 11.7768 8.22339 11.8888C8.59352 12.0827 9.00949 12.3284 9.4099 12.565C9.47084 12.601 9.53143 12.6368 9.59143 12.6721C10.0564 12.9461 10.4842 13.1929 10.8227 13.3493C10.8906 13.3806 10.9509 13.4065 11.0039 13.4273C11.0022 13.3506 10.9967 13.2598 10.9868 13.1548C10.9484 12.7464 10.8537 12.216 10.7446 11.6549C10.7133 11.494 10.6808 11.3302 10.6485 11.1672C10.5703 10.7739 10.4931 10.385 10.4363 10.0506C10.396 9.813 10.3635 9.58926 10.348 9.39982C10.3345 9.23559 10.3249 9.01524 10.3826 8.83435L10.3826 8.83432C10.4386 8.65873 10.5666 8.48775 10.6693 8.36114C10.7867 8.2166 10.9359 8.05416 11.0987 7.88512C11.3206 7.65466 11.5861 7.39326 11.8551 7.12836C11.9783 7.007 12.1023 6.88492 12.2232 6.76474C12.6168 6.37339 12.9814 5.99865 13.2349 5.68924C13.3119 5.59527 13.3731 5.51385 13.4197 5.44516C13.3523 5.42379 13.2697 5.40153 13.1711 5.37904C12.8002 5.29445 12.3029 5.22841 11.7697 5.16688C11.6188 5.14948 11.4648 5.13241 11.3112 5.11538C10.9351 5.07371 10.5615 5.03231 10.2434 4.98695C10.0181 4.95484 9.80551 4.91875 9.62767 4.8756C9.47463 4.83847 9.26309 4.77813 9.10843 4.65849L9.10841 4.65848C8.96195 4.54516 8.84572 4.36333 8.76392 4.22441C8.66947 4.06401 8.56881 3.86666 8.46636 3.65385C8.32658 3.36349 8.17243 3.02075 8.01614 2.67328C7.94462 2.51428 7.87266 2.35428 7.80142 2.19786C7.56938 1.68834 7.34322 1.21241 7.14161 0.866531C7.09217 0.78172 7.04706 0.709747 7.00656 0.650053C6.96725 0.707733 6.92352 0.777031 6.87563 0.858525C6.67468 1.20052 6.44919 1.6722 6.21738 2.17797C6.14824 2.32881 6.0784 2.48302 6.00892 2.63644C5.85063 2.98594 5.6942 3.33136 5.55221 3.62346C5.44951 3.83475 5.34829 4.03095 5.25298 4.19042C5.17066 4.32815 5.05235 4.51043 4.90196 4.62289L7.01168 11.4663ZM7.01168 11.4663H7.00871C6.80496 11.4663 6.59227 11.5308 6.41052 11.6006C6.21782 11.6746 6.00736 11.7756 5.79311 11.8879C5.42164 12.0826 5.0041 12.3298 4.60253 12.5676C4.54239 12.6032 4.48262 12.6386 4.42341 12.6736C3.95795 12.9485 3.53022 13.1958 3.1921 13.3522C3.12359 13.3838 3.06291 13.4098 3.00979 13.4306C3.01024 13.3509 3.01463 13.2558 3.02357 13.1452C3.05663 12.7364 3.14364 12.2063 3.24465 11.6463C3.2755 11.4753 3.30775 11.301 3.33979 11.1278C3.41043 10.7461 3.48006 10.3698 3.53152 10.0454C3.56913 9.80834 3.5993 9.58562 3.61354 9.39732C3.62599 9.23273 3.63407 9.01757 3.58101 8.84177C3.52737 8.66405 3.40106 8.49135 3.29995 8.36412C3.18446 8.2188 3.03734 8.05576 2.87696 7.88639C2.65646 7.6535 2.39222 7.38933 2.12484 7.12201C2.0056 7.0028 1.88573 6.88297 1.76885 6.765C1.38099 6.37358 1.02233 5.99935 0.773835 5.69073C0.69737 5.59576 0.636964 5.51383 0.591449 5.44509L7.01168 11.4663ZM2.77322 13.4983C2.77349 13.498 2.7779 13.4974 2.78565 13.4977C2.77683 13.4988 2.77296 13.4986 2.77322 13.4983ZM13.615 5.52786C13.6146 5.52795 13.6113 5.52591 13.6061 5.52147C13.6127 5.52556 13.6153 5.52777 13.615 5.52786ZM0.404892 5.52731C0.40459 5.52724 0.40697 5.52518 0.412934 5.52136C0.408176 5.52548 0.405193 5.52739 0.404892 5.52731ZM11.2455 13.4967C11.2458 13.4971 11.242 13.4972 11.2335 13.4962C11.241 13.4959 11.2452 13.4964 11.2455 13.4967Z" stroke="black" stroke-linejoin="round"/>
</svg>
