<svg width="132" height="64" viewBox="0 0 132 64" fill="none" xmlns="http://www.w3.org/2000/svg">
<path d="M26.0219 35.8762H1.68526C0.926421 35.8762 0.310547 36.4907 0.310547 37.2509C0.310547 38.0112 0.926421 38.6257 1.68526 38.6257H26.0233C26.7821 38.6257 27.398 38.0112 27.398 37.2509C27.398 36.4907 26.7821 35.8762 26.0219 35.8762Z" fill="#BFBFBF"/>
<path d="M26.0224 27.0272H10.5349C9.77603 27.0272 9.16016 27.643 9.16016 28.4019C9.16016 29.1607 9.77603 29.7766 10.5349 29.7766H26.0224C26.7813 29.7766 27.3972 29.1607 27.3972 28.4019C27.3972 27.643 26.7827 27.0272 26.0224 27.0272Z" fill="#BFBFBF"/>
<path d="M26.021 18.1768H19.3825C18.6237 18.1768 18.0078 18.7926 18.0078 19.5515C18.0078 20.3103 18.6237 20.9262 19.3825 20.9262H26.021C26.7799 20.9262 27.3958 20.3103 27.3958 19.5515C27.3958 18.7926 26.7813 18.1768 26.021 18.1768Z" fill="#BFBFBF"/>
<path d="M128.086 26.2805L120.702 25.4694L113.521 11.5311C113.286 11.0734 112.813 10.786 112.299 10.786H92.7049V1.37472C92.7049 0.615874 92.0904 0 91.3302 0H35.5661C34.8073 0 34.1914 0.615874 34.1914 1.37472V47.678C34.1914 48.4382 34.8073 49.0527 35.5661 49.0527H43.0748C43.8337 49.0527 44.4496 48.4382 44.4496 47.678C44.4496 46.9178 43.8337 46.3033 43.0748 46.3033H36.9408V2.74944H89.9541V46.3033H69.4406C68.6803 46.3033 68.0658 46.9178 68.0658 47.678C68.0658 48.4382 68.6803 49.0527 69.4406 49.0527H91.3302C91.9378 49.0527 92.4382 48.6513 92.6197 48.1041C92.9331 47.8526 93.1462 47.4828 93.1462 47.0484V13.5355H111.463L118.598 27.3858C118.808 27.7954 119.211 28.0731 119.669 28.1226L127.785 29.0134C128.478 29.0904 128.984 29.6939 128.945 30.2974L125.603 54.7633C125.502 55.5166 126.028 56.2095 126.779 56.3126C126.842 56.3208 126.905 56.3249 126.967 56.3249C127.643 56.3249 128.233 55.8259 128.328 55.1372L131.68 30.5779C131.828 28.4072 130.25 26.5197 128.086 26.2805Z" fill="#BFBFBF"/>
<path d="M112.189 28.3662C112.441 27.962 112.464 27.4561 112.253 27.03L108.321 19.1089C108.089 18.6415 107.612 18.3459 107.089 18.3459H100.084C99.3235 18.3459 98.709 18.9618 98.709 19.7206V27.6417C98.709 28.4006 99.3235 29.0164 100.084 29.0164H111.021C111.497 29.0164 111.939 28.7704 112.189 28.3662ZM101.458 26.267V21.0953H106.237L108.804 26.267H101.458Z" fill="#BFBFBF"/>
<path d="M96.8207 53.5757H72.4841C71.7239 53.5757 71.1094 54.1902 71.1094 54.9505C71.1094 55.7107 71.7239 56.3252 72.4841 56.3252H96.8207C97.5809 56.3252 98.1954 55.7107 98.1954 54.9505C98.1954 54.1902 97.5809 53.5757 96.8207 53.5757Z" fill="#BFBFBF"/>
<path d="M111.878 43.599C106.253 43.599 101.678 48.1741 101.678 53.7967C101.678 59.4234 106.253 63.9998 111.878 63.9998C117.501 63.9998 122.076 59.4234 122.076 53.7967C122.076 48.1741 117.501 43.599 111.878 43.599ZM111.878 61.2504C107.77 61.2504 104.427 57.9057 104.427 53.7967C104.427 49.6904 107.77 46.3484 111.878 46.3484C115.984 46.3484 119.326 49.6904 119.326 53.7967C119.326 57.9057 115.984 61.2504 111.878 61.2504Z" fill="#BFBFBF"/>
<path d="M56.701 43.599C51.077 43.599 46.502 48.1741 46.502 53.7967C46.502 59.4234 51.077 63.9998 56.701 63.9998C62.3236 63.9998 66.8986 59.4234 66.8986 53.7967C66.8986 48.1741 62.3236 43.599 56.701 43.599ZM56.701 61.2504C52.5933 61.2504 49.2514 57.9057 49.2514 53.7967C49.2514 49.6904 52.5933 46.3484 56.701 46.3484C60.8086 46.3484 64.1492 49.6904 64.1492 53.7967C64.1492 57.9057 60.8086 61.2504 56.701 61.2504Z" fill="#BFBFBF"/>
</svg>
