<svg width="17" height="16" viewBox="0 0 17 16" fill="none" xmlns="http://www.w3.org/2000/svg">
<g clip-path="url(#clip0_332_68272)">
<path d="M16.5 3.54036C15.91 3.80104 15.2794 3.97708 14.6149 4.05833C15.293 3.65208 15.8151 3.00885 16.0592 2.24375C15.4252 2.61953 14.7234 2.89375 13.974 3.03932C13.3739 2.39948 12.5195 2 11.5769 2C9.76298 2 8.29487 3.46927 8.29487 5.28047C8.29487 5.53776 8.322 5.78828 8.37963 6.02865C5.65024 5.89323 3.22939 4.58646 1.6121 2.59922C1.33068 3.08333 1.16794 3.6487 1.16794 4.24792C1.16794 5.38542 1.75111 6.39089 2.63266 6.97995C2.09017 6.96641 1.58159 6.81745 1.14081 6.57031V6.61094C1.14081 8.20208 2.27326 9.52578 3.77527 9.82708C3.50064 9.90156 3.20905 9.94219 2.91068 9.94219C2.70047 9.94219 2.49364 9.92188 2.2936 9.88125C2.71064 11.1846 3.92445 12.1326 5.36205 12.1596C4.23978 13.0398 2.82253 13.5646 1.28322 13.5646C1.01875 13.5646 0.757682 13.5477 0.5 13.5172C1.94776 14.4583 3.67355 15 5.52479 15C11.5701 15 14.8725 9.99974 14.8725 5.66302C14.8725 5.52083 14.8691 5.37865 14.8624 5.23984C15.5032 4.77604 16.0592 4.20052 16.5 3.54036Z" fill="#B0B0B0"/>
</g>
<defs>
<clipPath id="clip0_332_68272">
<rect width="16" height="16" fill="white" transform="translate(0.5)"/>
</clipPath>
</defs>
</svg>
