<svg width="68" height="25" viewBox="0 0 68 25" fill="none" xmlns="http://www.w3.org/2000/svg">
<g filter="url(#filter0_i_1187_68125)">
<path d="M2.6 24V13.06L2.2 11.06L2.6 9.84H9.38C10.3267 9.84 11.24 9.93333 12.12 10.12C13.0133 10.2933 13.8067 10.6267 14.5 11.12C15.2067 11.6133 15.7667 12.32 16.18 13.24C16.5933 14.16 16.8 15.3533 16.8 16.82C16.8 18.2867 16.5867 19.4933 16.16 20.44C15.7467 21.3733 15.1867 22.1 14.48 22.62C13.7733 23.14 12.98 23.5 12.1 23.7C11.22 23.9 10.3133 24 9.38 24H2.6ZM7.04 20.2H8.56C9.34667 20.2 10.0067 20.1133 10.54 19.94C11.0867 19.7667 11.5 19.44 11.78 18.96C12.06 18.4667 12.2 17.7533 12.2 16.82C12.2 15.8733 12.0533 15.18 11.76 14.74C11.48 14.2867 11.0667 13.9933 10.52 13.86C9.98667 13.7133 9.33333 13.64 8.56 13.64H7.04V20.2ZM0.76 17.84L0.78 16.24H9.8V17.84H0.76ZM26.2816 24.2C25.4282 24.2 24.5749 24.1 23.7216 23.9C22.8816 23.6867 22.1082 23.3133 21.4016 22.78C20.7082 22.2467 20.1482 21.5067 19.7216 20.56C19.2949 19.6133 19.0816 18.4 19.0816 16.92C19.0816 15.44 19.2949 14.2267 19.7216 13.28C20.1482 12.3333 20.7082 11.5933 21.4016 11.06C22.1082 10.5267 22.8816 10.16 23.7216 9.96C24.5749 9.74667 25.4282 9.64 26.2816 9.64C27.1349 9.64 27.9816 9.74667 28.8216 9.96C29.6749 10.1733 30.4482 10.5467 31.1416 11.08C31.8482 11.6133 32.4149 12.3533 32.8416 13.3C33.2682 14.2467 33.4816 15.4533 33.4816 16.92C33.4816 18.3867 33.2682 19.5933 32.8416 20.54C32.4149 21.4867 31.8482 22.2267 31.1416 22.76C30.4482 23.2933 29.6749 23.6667 28.8216 23.88C27.9816 24.0933 27.1349 24.2 26.2816 24.2ZM26.2816 20.2C27.1482 20.2 27.8016 19.94 28.2416 19.42C28.6816 18.8867 28.9016 18.0533 28.9016 16.92C28.9016 15.8 28.6816 14.9733 28.2416 14.44C27.8016 13.9067 27.1482 13.64 26.2816 13.64C24.5482 13.64 23.6816 14.7333 23.6816 16.92C23.6816 18.04 23.8949 18.8667 24.3216 19.4C24.7616 19.9333 25.4149 20.2 26.2816 20.2ZM22.9816 8L25.1616 4.8H27.1816L29.3416 8H27.3216L26.1816 6.84L24.9816 8H22.9816ZM26.1816 3.84L23.4216 1.22V-9.53674e-07H26.2816L27.6016 3.84H26.1816ZM36.5633 24V13.06L36.1633 11.06L36.5633 9.86H40.5833L44.6233 14.9L45.5833 16.56H45.7833V9.86H50.4033V11.06L50.2033 13.06V24H46.2233L41.2033 17.16H41.0033V18.36L41.2033 24H36.5633ZM61.0839 24.2C59.9239 24.2 58.8572 24.1 57.8839 23.9C56.9106 23.6867 56.0639 23.3133 55.3439 22.78C54.6239 22.2467 54.0639 21.5067 53.6639 20.56C53.2772 19.6133 53.0839 18.4 53.0839 16.92C53.0839 15.4533 53.2906 14.2467 53.7039 13.3C54.1172 12.3533 54.6772 11.6133 55.3839 11.08C56.1039 10.5467 56.9172 10.1733 57.8239 9.96C58.7306 9.74667 59.6772 9.64 60.6639 9.64C61.3172 9.64 61.9172 9.67333 62.4639 9.74C63.0106 9.80667 63.5039 9.89333 63.9439 10L66.6639 11.58L65.2639 15.1L60.8439 13.76C60.2706 13.76 59.7439 13.8533 59.2639 14.04C58.7839 14.2133 58.3972 14.5333 58.1039 15C57.8239 15.4533 57.6839 16.1 57.6839 16.94C57.6839 18.22 57.9572 19.12 58.5039 19.64C59.0639 20.1467 59.8506 20.4 60.8639 20.4C61.2506 20.4 61.5706 20.38 61.8239 20.34C62.0772 20.2867 62.2906 20.2267 62.4639 20.16V19.06H60.7239V15.9H67.0839L67.3039 17.1L66.8639 19.16V23.36C66.7172 23.4133 66.3839 23.5067 65.8639 23.64C65.3572 23.7733 64.6972 23.9 63.8839 24.02C63.0706 24.14 62.1372 24.2 61.0839 24.2Z" fill="url(#paint0_linear_1187_68125)"/>
</g>
<defs>
<filter id="filter0_i_1187_68125" x="0.761719" y="0" width="66.543" height="24.2002" filterUnits="userSpaceOnUse" color-interpolation-filters="sRGB">
<feFlood flood-opacity="0" result="BackgroundImageFix"/>
<feBlend mode="normal" in="SourceGraphic" in2="BackgroundImageFix" result="shape"/>
<feColorMatrix in="SourceAlpha" type="matrix" values="0 0 0 0 0 0 0 0 0 0 0 0 0 0 0 0 0 0 127 0" result="hardAlpha"/>
<feOffset dy="0.8"/>
<feComposite in2="hardAlpha" operator="arithmetic" k2="-1" k3="1"/>
<feColorMatrix type="matrix" values="0 0 0 0 0 0 0 0 0 0 0 0 0 0 0 0 0 0 0.64 0"/>
<feBlend mode="normal" in2="shape" result="effect1_innerShadow_1187_68125"/>
</filter>
<linearGradient id="paint0_linear_1187_68125" x1="1" y1="24" x2="6.60598" y2="-2.8286" gradientUnits="userSpaceOnUse">
<stop stop-color="#D26F3A"/>
<stop offset="0.21" stop-color="#984D26"/>
<stop offset="0.415" stop-color="#FDB164"/>
<stop offset="0.665" stop-color="#D67B42"/>
<stop offset="1" stop-color="#E79C56"/>
</linearGradient>
</defs>
</svg>
