<svg width="16" height="16" viewBox="0 0 16 16" fill="none" xmlns="http://www.w3.org/2000/svg">
<path d="M1.33398 5.58449C1.33398 5.35094 1.33398 5.23417 1.34373 5.13582C1.43772 4.18719 2.18816 3.43674 3.13679 3.34275C3.23515 3.33301 3.35822 3.33301 3.60437 3.33301C3.69922 3.33301 3.74664 3.33301 3.78691 3.33057C4.30106 3.29943 4.75129 2.97493 4.94341 2.49701C4.95846 2.45958 4.97252 2.41739 5.00065 2.33301C5.02878 2.24863 5.04284 2.20644 5.05789 2.16901C5.25002 1.69109 5.70024 1.36658 6.21439 1.33545C6.25466 1.33301 6.29913 1.33301 6.38808 1.33301H9.61323C9.70217 1.33301 9.74664 1.33301 9.78691 1.33545C10.3011 1.36658 10.7513 1.69109 10.9434 2.16901C10.9585 2.20644 10.9725 2.24863 11.0007 2.33301C11.0288 2.41739 11.0428 2.45958 11.0579 2.49701C11.25 2.97493 11.7002 3.29943 12.2144 3.33057C12.2547 3.33301 12.3021 3.33301 12.3969 3.33301C12.6431 3.33301 12.7662 3.33301 12.8645 3.34275C13.8131 3.43674 14.5636 4.18719 14.6576 5.13582C14.6673 5.23417 14.6673 5.35094 14.6673 5.58449V10.7997C14.6673 11.9198 14.6673 12.4798 14.4493 12.9077C14.2576 13.284 13.9516 13.5899 13.5753 13.7817C13.1475 13.9997 12.5874 13.9997 11.4673 13.9997H4.53398C3.41388 13.9997 2.85383 13.9997 2.426 13.7817C2.04968 13.5899 1.74372 13.284 1.55197 12.9077C1.33398 12.4798 1.33398 11.9198 1.33398 10.7997V5.58449Z" stroke="white" stroke-width="1.2" stroke-linecap="round" stroke-linejoin="round"/>
<path d="M8.00065 10.9997C9.47341 10.9997 10.6673 9.80577 10.6673 8.33301C10.6673 6.86025 9.47341 5.66634 8.00065 5.66634C6.52789 5.66634 5.33398 6.86025 5.33398 8.33301C5.33398 9.80577 6.52789 10.9997 8.00065 10.9997Z" stroke="white" stroke-width="1.2" stroke-linecap="round" stroke-linejoin="round"/>
</svg>
