<svg width="28" height="28" viewBox="0 0 28 28" fill="none" xmlns="http://www.w3.org/2000/svg">
<rect x="1" y="1" width="26" height="26" rx="13" fill="url(#paint0_angular_335_50250)"/>
<rect x="1" y="1" width="26" height="26" rx="13" stroke="url(#paint1_linear_335_50250)" stroke-width="2"/>
<g filter="url(#filter0_d_335_50250)">
<path d="M11.8138 13.9325L11.8138 13.9325L11.8153 13.9307C12.1898 13.4759 12.5043 12.949 12.7864 12.3849C12.8538 12.2502 12.8397 12.0891 12.7501 11.968C12.6604 11.847 12.5104 11.7865 12.3619 11.8117C10.6797 12.0963 9.27441 12.8291 8.51984 13.8352C8.42894 13.9564 8.41432 14.1186 8.48207 14.2541C8.53036 14.3507 8.61457 14.4219 8.71382 14.4549C9.09561 14.6959 9.52366 14.7992 9.96134 14.7992C10.7068 14.7992 11.3664 14.4694 11.8138 13.9325Z" fill="white" stroke="url(#paint2_linear_335_50250)" stroke-width="0.8" stroke-linejoin="round"/>
<path d="M19.3359 14.4543C19.4351 14.4214 19.5194 14.3502 19.5676 14.2536C19.6354 14.1181 19.6208 13.9559 19.5299 13.8347C18.773 12.8256 17.3647 12.1199 15.6878 11.8361C15.5393 11.8109 15.3893 11.8714 15.2996 11.9924C15.21 12.1135 15.196 12.2746 15.2633 12.4094C15.5502 12.983 15.8882 13.5028 16.2255 13.9439C16.2311 13.9513 16.2371 13.9585 16.2433 13.9655C16.6888 14.4705 17.3443 14.7987 18.0884 14.7987C18.5261 14.7987 18.9541 14.6954 19.3359 14.4543Z" fill="white" stroke="url(#paint3_linear_335_50250)" stroke-width="0.8" stroke-linejoin="round"/>
<path d="M21.2962 13.0326C21.9243 12.9182 22.4 12.3686 22.4 11.7074C22.4 10.9812 21.7903 10.3853 21.053 10.3853C20.3087 10.3853 19.7059 10.9881 19.7059 11.7323C19.7059 12.1692 19.9155 12.581 20.2632 12.8261C20.1048 13.1706 19.9188 13.4735 19.6958 13.748C19.6925 13.752 19.6893 13.7561 19.6862 13.7603C19.5788 13.9034 19.4312 14.0186 19.23 14.1697C18.3429 14.7316 17.113 14.5712 16.4563 13.7512C16.0066 13.183 15.648 12.5631 15.3583 11.9597C15.0677 11.3394 14.8543 10.7331 14.7064 10.2424C15.0966 10.0048 15.347 9.5761 15.347 9.0906C15.347 8.34632 14.7443 7.74355 14 7.74355C13.2557 7.74355 12.653 8.34632 12.653 9.0906C12.653 9.5808 12.9201 10.0026 13.2976 10.2382C13.1505 10.7355 12.9361 11.3314 12.6417 11.9597C12.349 12.5693 11.9918 13.2087 11.5483 13.7455L11.5482 13.7454L11.5414 13.7541C10.8846 14.5956 9.62435 14.7363 8.75627 14.1858L8.75406 14.1844C8.5917 14.0829 8.43051 13.9408 8.31377 13.7852C8.31066 13.781 8.30748 13.777 8.30422 13.7729C8.07932 13.4961 7.89208 13.1905 7.73292 12.8425C8.07409 12.6005 8.29408 12.2101 8.29408 11.7573C8.29408 11.013 7.69132 10.4102 6.94704 10.4102C6.20276 10.4102 5.6 11.013 5.6 11.7573C5.6 12.4189 6.0764 12.9688 6.70511 13.0827L7.62319 18.5037C7.46161 18.5551 7.34455 18.7064 7.34455 18.885V19.857C7.34455 20.0779 7.52363 20.257 7.74455 20.257H20.3053C20.5262 20.257 20.7053 20.0779 20.7053 19.857V18.885C20.7053 18.6965 20.5741 18.5353 20.3932 18.4947L21.2962 13.0326ZM14.0249 17.4881C13.8338 17.4881 13.6203 17.3773 13.4374 17.1065C13.2549 16.8365 13.129 16.4376 13.129 15.9691C13.129 15.5145 13.2542 15.1145 13.4383 14.8396C13.6239 14.5625 13.8381 14.4501 14.0249 14.4501C14.2161 14.4501 14.4295 14.5609 14.6125 14.8317C14.7949 15.1017 14.9209 15.5006 14.9209 15.9691C14.9209 16.4376 14.7949 16.8365 14.6125 17.1065C14.4295 17.3773 14.2161 17.4881 14.0249 17.4881Z" fill="white" stroke="url(#paint4_linear_335_50250)" stroke-width="0.8" stroke-linejoin="round"/>
</g>
<defs>
<filter id="filter0_d_335_50250" x="4.19922" y="7.34375" width="19.6016" height="15.3135" filterUnits="userSpaceOnUse" color-interpolation-filters="sRGB">
<feFlood flood-opacity="0" result="BackgroundImageFix"/>
<feColorMatrix in="SourceAlpha" type="matrix" values="0 0 0 0 0 0 0 0 0 0 0 0 0 0 0 0 0 0 127 0" result="hardAlpha"/>
<feOffset dy="1"/>
<feGaussianBlur stdDeviation="0.5"/>
<feComposite in2="hardAlpha" operator="out"/>
<feColorMatrix type="matrix" values="0 0 0 0 0 0 0 0 0 0 0 0 0 0 0 0 0 0 0.48 0"/>
<feBlend mode="normal" in2="BackgroundImageFix" result="effect1_dropShadow_335_50250"/>
<feBlend mode="normal" in="SourceGraphic" in2="effect1_dropShadow_335_50250" result="shape"/>
</filter>
<radialGradient id="paint0_angular_335_50250" cx="0" cy="0" r="1" gradientUnits="userSpaceOnUse" gradientTransform="translate(14 14) rotate(-45) scale(16.9706)">
<stop offset="0.119318" stop-color="#E9F6FE"/>
<stop offset="0.223887" stop-color="#BBBCFF"/>
<stop offset="0.349815" stop-color="#CFD6FF"/>
<stop offset="0.452979" stop-color="#BEBFFF"/>
<stop offset="0.581806" stop-color="#FEFEFC"/>
<stop offset="0.698792" stop-color="#B8C9FD"/>
<stop offset="0.848527" stop-color="#B6C9FF"/>
<stop offset="0.97313" stop-color="#C6DFFE"/>
</radialGradient>
<linearGradient id="paint1_linear_335_50250" x1="2" y1="26" x2="26" y2="2" gradientUnits="userSpaceOnUse">
<stop stop-color="#B8C9FD"/>
<stop offset="0.21" stop-color="#BBBCFF"/>
<stop offset="0.415" stop-color="#E0E7FC"/>
<stop offset="0.665" stop-color="#B6C9FE"/>
<stop offset="1" stop-color="#C6DFFE"/>
</linearGradient>
<linearGradient id="paint2_linear_335_50250" x1="8.83984" y1="14.3992" x2="10.7915" y2="11.2056" gradientUnits="userSpaceOnUse">
<stop stop-color="#B8C9FD"/>
<stop offset="0.21" stop-color="#BBBCFF"/>
<stop offset="0.415" stop-color="#E0E7FC"/>
<stop offset="0.665" stop-color="#B6C9FE"/>
<stop offset="1" stop-color="#C6DFFE"/>
</linearGradient>
<linearGradient id="paint3_linear_335_50250" x1="15.6211" y1="14.3987" x2="17.5404" y2="11.2218" gradientUnits="userSpaceOnUse">
<stop stop-color="#B8C9FD"/>
<stop offset="0.21" stop-color="#BBBCFF"/>
<stop offset="0.415" stop-color="#E0E7FC"/>
<stop offset="0.665" stop-color="#B6C9FE"/>
<stop offset="1" stop-color="#C6DFFE"/>
</linearGradient>
<linearGradient id="paint4_linear_335_50250" x1="6" y1="19.857" x2="17.166" y2="4.60465" gradientUnits="userSpaceOnUse">
<stop stop-color="#B8C9FD"/>
<stop offset="0.21" stop-color="#BBBCFF"/>
<stop offset="0.415" stop-color="#E0E7FC"/>
<stop offset="0.665" stop-color="#B6C9FE"/>
<stop offset="1" stop-color="#C6DFFE"/>
</linearGradient>
</defs>
</svg>
