<svg width="128" height="128" viewBox="0 0 128 128" fill="none" xmlns="http://www.w3.org/2000/svg">
<g style="mix-blend-mode:luminosity" opacity="0.2" clip-path="url(#clip0_298_57828)">
<path fill-rule="evenodd" clip-rule="evenodd" d="M24.9878 98.3174C30.3091 98.3174 32.5198 102.637 29.9184 107.96C27.3184 113.281 20.8878 117.603 15.5651 117.603C10.2438 117.603 8.03309 113.281 10.6331 107.96C13.2344 102.637 19.6651 98.3174 24.9878 98.3174ZM64.8158 98.3174C70.1384 98.3174 72.3478 102.637 69.7478 107.96C67.1478 113.281 60.7158 117.603 55.3931 117.603C50.0718 117.603 47.8624 113.281 50.4624 107.96C53.0624 102.637 59.4944 98.3174 64.8158 98.3174Z" fill="#333333"/>
<path fill-rule="evenodd" clip-rule="evenodd" d="M114.275 32.768C114.679 31.9413 114.628 30.9653 114.14 30.1853C113.653 29.404 112.799 28.9307 111.879 28.9307C97.6733 28.9307 52.3879 28.9307 43.1253 28.9307C42.1053 28.9307 41.1759 29.5107 40.7293 30.4267C35.7946 40.524 7.55859 98.3173 7.55859 98.3173H82.2479C82.2479 98.3173 107.163 47.324 114.275 32.768Z" fill="#F2AF0D"/>
<path fill-rule="evenodd" clip-rule="evenodd" d="M88.172 28.9307H69.4347C69.4347 28.9307 61.724 44.712 58.592 51.1213C58.388 51.5387 58.464 52.0387 58.7827 52.3773C59.1013 52.716 59.596 52.8227 60.0253 52.644C61.7107 51.944 63.884 51.04 65.676 50.296C67.7773 49.4227 70.1773 49.684 72.0413 50.988C72.6547 51.4173 73.288 51.86 73.864 52.2627C74.4053 52.6427 75.0867 52.7653 75.7267 52.6C76.3667 52.4347 76.9013 51.9973 77.192 51.4027C80.228 45.188 88.172 28.9307 88.172 28.9307ZM20 92H35.8867C36.9907 92 37.8867 91.104 37.8867 90C37.8867 88.896 36.9907 88 35.8867 88H20C18.896 88 18 88.896 18 90C18 91.104 18.896 92 20 92ZM37.5253 83.8293L39.912 78.9453C40.396 77.9533 39.9853 76.7547 38.9933 76.2707C38.0013 75.7853 36.8027 76.1973 36.3187 77.1893L33.932 82.0733C33.4467 83.0653 33.8587 84.264 34.8507 84.748C35.8427 85.232 37.0413 84.8213 37.5253 83.8293ZM28.844 83.8293L31.2293 78.9453C31.7147 77.9533 31.3027 76.7547 30.3107 76.2707C29.3187 75.7853 28.12 76.1973 27.636 77.1893L25.2493 82.0733C24.7653 83.0653 25.1773 84.264 26.168 84.748C27.16 85.232 28.3587 84.8213 28.844 83.8293Z" fill="#B5830A"/>
<path fill-rule="evenodd" clip-rule="evenodd" d="M111.027 10.3975C118.924 10.3975 125.335 16.8095 125.335 24.7055C125.335 30.6121 117.332 44.0361 113.297 50.4295C112.819 51.2281 111.957 51.7161 111.027 51.7161C110.096 51.7161 109.235 51.2281 108.756 50.4308C104.721 44.0361 96.7188 30.6121 96.7188 24.7055C96.7188 16.8095 103.131 10.3975 111.027 10.3975ZM111.027 19.1268C113.68 19.1268 115.833 21.2801 115.833 23.9335C115.833 26.5868 113.68 28.7401 111.027 28.7401C108.373 28.7401 106.22 26.5868 106.22 23.9335C106.22 21.2801 108.373 19.1268 111.027 19.1268Z" fill="#F20D0D"/>
<path fill-rule="evenodd" clip-rule="evenodd" d="M2.66797 59.316H17.064C18.168 59.316 19.064 58.42 19.064 57.316C19.064 56.212 18.168 55.316 17.064 55.316H2.66797C1.56397 55.316 0.667969 56.212 0.667969 57.316C0.667969 58.42 1.56397 59.316 2.66797 59.316ZM2.66797 45.1227H23.9973C25.1013 45.1227 25.9973 44.2267 25.9973 43.1227C25.9973 42.0187 25.1013 41.1227 23.9973 41.1227H2.66797C1.56397 41.1227 0.667969 42.0187 0.667969 43.1227C0.667969 44.2267 1.56397 45.1227 2.66797 45.1227ZM2.66797 30.9307H30.932C32.036 30.9307 32.932 30.0347 32.932 28.9307C32.932 27.8267 32.036 26.9307 30.932 26.9307H2.66797C1.56397 26.9307 0.667969 27.8267 0.667969 28.9307C0.667969 30.0347 1.56397 30.9307 2.66797 30.9307Z" fill="#333333"/>
</g>
<defs>
<clipPath id="clip0_298_57828">
<rect width="128" height="128" fill="white"/>
</clipPath>
</defs>
</svg>
