<svg width="24" height="24" viewBox="0 0 24 24" fill="none" xmlns="http://www.w3.org/2000/svg">
<g clip-path="url(#clip0_298_55836)">
<path d="M19.4993 23.925C18.6455 24.5636 13.4994 20.5225 11.9993 20.5136C10.4994 20.5136 5.34319 24.5779 4.49931 23.925C3.65543 23.2721 5.61883 16.4525 5.30267 15.405C4.98651 14.3575 -0.332969 10.042 -0.000690994 9C0.33166 7.95796 7.02055 7.8771 7.87439 7.23854C8.72823 6.60006 10.95 -0.00881099 11.9993 8.81975e-06C13.0485 0.00890532 15.2794 6.65513 16.1233 7.30803C16.9672 7.96085 23.6832 7.95251 23.9994 9C24.3156 10.0475 18.9321 14.363 18.5998 15.405C18.2675 16.447 20.3532 23.2864 19.4993 23.925Z" fill="black"/>
</g>
<defs>
<clipPath id="clip0_298_55836">
<rect width="24" height="24" fill="white"/>
</clipPath>
</defs>
</svg>
