<svg width="24" height="24" viewBox="0 0 24 24" fill="none" xmlns="http://www.w3.org/2000/svg">
<g clip-path="url(#clip0_298_55833)">
<path d="M12.0209 19.5136V19.5136H12.0149C11.6387 19.5136 11.2541 19.6321 10.9383 19.7534C10.6006 19.883 10.2343 20.059 9.86472 20.2527C9.22435 20.5884 8.50492 21.0143 7.81691 21.4217C7.71389 21.4827 7.61158 21.5433 7.51034 21.6031C6.71125 22.0751 5.9842 22.4953 5.41221 22.7597C5.3763 22.7763 5.34178 22.792 5.30866 22.8066C5.31245 22.7269 5.31806 22.6402 5.32565 22.5462C5.38171 21.8532 5.52964 20.9507 5.70284 19.9905C5.75544 19.6988 5.81055 19.401 5.86539 19.1046C5.98667 18.4492 6.10661 17.801 6.19513 17.243C6.2598 16.8354 6.31224 16.4491 6.33709 16.1205C6.35835 15.8393 6.37517 15.4458 6.27564 15.116C6.17494 14.7824 5.94195 14.4674 5.7689 14.2496C5.56709 13.9957 5.31159 13.7127 5.03567 13.4213C4.65628 13.0206 4.20092 12.5654 3.74183 12.1064C3.53777 11.9024 3.33298 11.6976 3.13378 11.4966C2.46873 10.8254 1.85868 10.1886 1.43785 9.66595C1.36366 9.57381 1.29903 9.48968 1.24338 9.41353C1.3193 9.39207 1.40399 9.37002 1.49783 9.34761C2.12589 9.19763 2.97031 9.07544 3.88241 8.96006C4.15326 8.9258 4.43101 8.89204 4.70806 8.85837C5.33705 8.78193 5.96246 8.70592 6.49543 8.6254C6.88211 8.56699 7.2499 8.50203 7.55935 8.42579C7.82146 8.36121 8.20257 8.2535 8.48887 8.0394C8.77189 7.82777 8.98718 7.49204 9.12774 7.25686C9.29427 6.97823 9.46988 6.63757 9.64655 6.27411C9.89085 5.77154 10.1604 5.17639 10.4322 4.57632C10.5511 4.31377 10.6704 4.05028 10.7882 3.79319C11.1857 2.92588 11.5696 2.12339 11.91 1.54413C11.9451 1.48426 11.9788 1.42858 12.011 1.37696C12.0454 1.43243 12.0815 1.49254 12.1193 1.55742C12.4609 2.14343 12.846 2.95328 13.2439 3.82697C13.3653 4.09358 13.4882 4.36697 13.6106 4.63909C13.879 5.23572 14.1446 5.82623 14.385 6.32571C14.5613 6.69175 14.7358 7.03425 14.9008 7.31432C15.0404 7.55146 15.2517 7.88592 15.527 8.09895L15.527 8.09898C15.8188 8.32466 16.209 8.43347 16.4709 8.49701C16.7824 8.57258 17.1522 8.63521 17.54 8.69049C18.0877 8.76858 18.7318 8.83996 19.3774 8.9115C19.6402 8.94063 19.9033 8.96978 20.1602 8.99942C21.0747 9.10494 21.9199 9.21743 22.5473 9.3605C22.6291 9.37915 22.7038 9.3976 22.7717 9.41566C22.7158 9.49048 22.6514 9.57274 22.5779 9.66245C22.1485 10.1866 21.5283 10.8244 20.8534 11.4954C20.6474 11.7002 20.4355 11.9088 20.2246 12.1164C19.7627 12.5713 19.3053 13.0218 18.9235 13.4182C18.6434 13.709 18.3843 13.9909 18.1794 14.2433C18.0036 14.4599 17.7678 14.7717 17.6627 15.1011L17.6627 15.1012C17.5542 15.4413 17.5741 15.8452 17.597 16.1256C17.6241 16.4565 17.6806 16.8448 17.75 17.2535C17.8477 17.8289 17.9807 18.4989 18.1148 19.1741C18.1702 19.4529 18.2258 19.7327 18.2791 20.0071C18.4661 20.9692 18.6272 21.8722 18.6923 22.5645C18.7002 22.6485 18.7064 22.7267 18.711 22.7991C18.6796 22.7852 18.647 22.7704 18.6132 22.7548C18.0403 22.4901 17.3132 22.071 16.515 21.6006C16.4124 21.5401 16.3087 21.4788 16.2043 21.4171C15.5182 21.0118 14.8015 20.5884 14.1635 20.2543C13.7945 20.061 13.429 19.8854 13.0922 19.7557C12.7769 19.6343 12.3945 19.5158 12.0209 19.5136ZM4.73912 22.9984C4.73974 22.9976 4.74977 22.996 4.76731 22.996C4.74726 22.9991 4.73849 22.9992 4.73912 22.9984ZM0.792126 9.58092C0.779659 9.5909 0.771748 9.59548 0.770908 9.59527C0.770068 9.59506 0.776302 9.59007 0.792126 9.58092ZM23.2644 9.59697C23.2635 9.59719 23.2552 9.59251 23.2421 9.58225C23.2588 9.59161 23.2653 9.59674 23.2644 9.59697ZM19.293 22.9957C19.2936 22.9965 19.2849 22.9965 19.2652 22.9934C19.2824 22.9934 19.2923 22.995 19.293 22.9957Z" stroke="black" stroke-width="2" stroke-linejoin="round"/>
</g>
<defs>
<clipPath id="clip0_298_55833">
<rect width="24" height="24" fill="white"/>
</clipPath>
</defs>
</svg>
