<svg width="39" height="24" viewBox="0 0 39 24" fill="none" xmlns="http://www.w3.org/2000/svg">
<g clip-path="url(#clip0_288_39181)">
<path d="M35.666 0H3.66602C1.96602 0 0.666016 1.3 0.666016 3V21C0.666016 22.7 2.06602 24 3.66602 24H35.666C37.366 24 38.666 22.7 38.666 21V3C38.666 1.3 37.266 0 35.666 0Z" fill="black" fill-opacity="0.07"/>
<path d="M35.666 1C36.766 1 37.666 1.9 37.666 3V21C37.666 22.1 36.766 23 35.666 23H3.66602C2.56602 23 1.66602 22.1 1.66602 21V3C1.66602 1.9 2.56602 1 3.66602 1H35.666Z" fill="white"/>
<path d="M28.966 10.1H28.666C28.266 11.1 27.966 11.6 27.666 13.1H29.566C29.266 11.6 29.266 10.9 28.966 10.1ZM31.866 16H30.166C30.066 16 30.066 16 29.966 15.9L29.766 15L29.666 14.8H27.266C27.166 14.8 27.066 14.8 27.066 15L26.766 15.9C26.766 16 26.666 16 26.666 16H24.566L24.766 15.5L27.666 8.7C27.666 8.2 27.966 8 28.466 8H29.966C30.066 8 30.166 8 30.166 8.2L31.566 14.7C31.666 15.1 31.766 15.4 31.766 15.8C31.866 15.9 31.866 15.9 31.866 16ZM18.466 15.7L18.866 13.9C18.966 13.9 19.066 14 19.066 14C19.766 14.3 20.466 14.5 21.166 14.4C21.366 14.4 21.666 14.3 21.866 14.2C22.366 14 22.366 13.5 21.966 13.1C21.766 12.9 21.466 12.8 21.166 12.6C20.766 12.4 20.366 12.2 20.066 11.9C18.866 10.9 19.266 9.5 19.966 8.8C20.566 8.4 20.866 8 21.666 8C22.866 8 24.166 8 24.766 8.2H24.866C24.766 8.8 24.666 9.3 24.466 9.9C23.966 9.7 23.466 9.5 22.966 9.5C22.666 9.5 22.366 9.5 22.066 9.6C21.866 9.6 21.766 9.7 21.666 9.8C21.466 10 21.466 10.3 21.666 10.5L22.166 10.9C22.566 11.1 22.966 11.3 23.266 11.5C23.766 11.8 24.266 12.3 24.366 12.9C24.566 13.8 24.266 14.6 23.466 15.2C22.966 15.6 22.766 15.8 22.066 15.8C20.666 15.8 19.566 15.9 18.666 15.6C18.566 15.8 18.566 15.8 18.466 15.7ZM14.966 16C15.066 15.3 15.066 15.3 15.166 15C15.666 12.8 16.166 10.5 16.566 8.3C16.666 8.1 16.666 8 16.866 8H18.666C18.466 9.2 18.266 10.1 17.966 11.2C17.666 12.7 17.366 14.2 16.966 15.7C16.966 15.9 16.866 15.9 16.666 15.9M5.66602 8.2C5.66602 8.1 5.86602 8 5.96602 8H9.36602C9.86602 8 10.266 8.3 10.366 8.8L11.266 13.2C11.266 13.3 11.266 13.3 11.366 13.4C11.366 13.3 11.466 13.3 11.466 13.3L13.566 8.2C13.466 8.1 13.566 8 13.666 8H15.766C15.766 8.1 15.766 8.1 15.666 8.2L12.566 15.5C12.466 15.7 12.466 15.8 12.366 15.9C12.266 16 12.066 15.9 11.866 15.9H10.366C10.266 15.9 10.166 15.9 10.166 15.7L8.56602 9.5C8.36602 9.3 8.06602 9 7.66602 8.9C7.06602 8.6 5.96602 8.4 5.76602 8.4L5.66602 8.2Z" fill="#142688"/>
</g>
<defs>
<clipPath id="clip0_288_39181">
<rect width="38" height="24" fill="white" transform="translate(0.666016)"/>
</clipPath>
</defs>
</svg>
