<svg width="24" height="24" viewBox="0 0 24 24" fill="none" xmlns="http://www.w3.org/2000/svg">
<path d="M21.7501 7.2525V7.185C20.9337 5.06269 19.4934 3.23757 17.6189 1.95026C15.7445 0.662951 13.524 -0.026123 11.2501 -0.026123C8.97615 -0.026123 6.75562 0.662951 4.88119 1.95026C3.00675 3.23757 1.56642 5.06269 0.750061 7.185V7.2525C-0.25002 9.82627 -0.25002 12.6812 0.750061 15.255C0.750061 15.255 0.750061 15.2925 0.750061 15.3075C1.52042 17.301 2.84056 19.0351 4.55714 20.3082C6.27371 21.5814 8.31627 22.3414 10.4476 22.5H10.5001C10.699 22.5 10.8897 22.421 11.0304 22.2803C11.171 22.1397 11.2501 21.9489 11.2501 21.75V21C11.2178 20.8299 11.1277 20.6762 10.9951 20.565C9.5014 19.2512 8.34195 17.6007 7.61256 15.75H10.5001C10.699 15.75 10.8897 15.671 11.0304 15.5303C11.171 15.3897 11.2501 15.1989 11.2501 15C11.2501 14.8011 11.171 14.6103 11.0304 14.4697C10.8897 14.329 10.699 14.25 10.5001 14.25H7.13256C6.88 13.27 6.75149 12.2621 6.75006 11.25C6.75228 10.2385 6.87821 9.23097 7.12506 8.25H15.3751C15.6219 9.23097 15.7478 10.2385 15.7501 11.25C15.7501 11.4489 15.8291 11.6397 15.9697 11.7803C16.1104 11.921 16.3011 12 16.5001 12C16.699 12 16.8897 11.921 17.0304 11.7803C17.171 11.6397 17.2501 11.4489 17.2501 11.25C17.2499 10.2414 17.1418 9.23564 16.9276 8.25H20.5201C20.8372 9.21845 20.9992 10.231 21.0001 11.25C21.0001 11.4489 21.0791 11.6397 21.2197 11.7803C21.3604 11.921 21.5511 12 21.7501 12C21.949 12 22.1397 11.921 22.2804 11.7803C22.421 11.6397 22.5001 11.4489 22.5001 11.25C22.4991 9.88262 22.2448 8.52725 21.7501 7.2525ZM9.00006 20.7525C7.64108 20.4218 6.36851 19.8044 5.26771 18.9416C4.16691 18.0788 3.26333 16.9906 2.61756 15.75H6.00006C6.636 17.606 7.65851 19.3059 9.00006 20.7375V20.7525ZM1.98756 14.25C1.6649 13.2827 1.50029 12.2697 1.50006 11.25C1.50095 10.231 1.66295 9.21845 1.98006 8.25H5.57256C5.35835 9.23564 5.25024 10.2414 5.25006 11.25C5.25191 12.2594 5.36509 13.2655 5.58756 14.25H1.98756ZM6.00006 6.75H2.61006C3.25595 5.51038 4.16082 4.42413 5.26334 3.5649C6.36585 2.70566 7.64023 2.09353 9.00006 1.77C7.65517 3.19617 6.63212 4.89443 6.00006 6.75ZM7.61256 6.75C8.38404 4.79199 9.63477 3.05901 11.2501 1.71C12.8681 3.05812 14.1215 4.79118 14.8951 6.75H7.61256ZM16.5001 6.75C15.868 4.89443 14.8449 3.19617 13.5001 1.77C14.8599 2.09353 16.1343 2.70566 17.2368 3.5649C18.3393 4.42413 19.2442 5.51038 19.8901 6.75H16.5001Z" fill="black"/>
<path d="M16.5 14.25H19.5V16.5C19.5 16.6989 19.421 16.8897 19.2803 17.0303C19.1397 17.171 18.9489 17.25 18.75 17.25H17.25C17.0511 17.25 16.8603 17.171 16.7197 17.0303C16.579 16.8897 16.5 16.6989 16.5 16.5V14.25Z" fill="#A3A3A3"/>
<path d="M21 24H15C14.4033 24 13.831 23.7629 13.409 23.341C12.9871 22.919 12.75 22.3467 12.75 21.75V15.75C12.75 15.1533 12.9871 14.581 13.409 14.159C13.831 13.7371 14.4033 13.5 15 13.5H21C21.5967 13.5 22.169 13.7371 22.591 14.159C23.0129 14.581 23.25 15.1533 23.25 15.75V21.75C23.25 22.3467 23.0129 22.919 22.591 23.341C22.169 23.7629 21.5967 24 21 24ZM15 15C14.8011 15 14.6103 15.079 14.4697 15.2197C14.329 15.3603 14.25 15.5511 14.25 15.75V21.75C14.25 21.9489 14.329 22.1397 14.4697 22.2803C14.6103 22.421 14.8011 22.5 15 22.5H21C21.1989 22.5 21.3897 22.421 21.5303 22.2803C21.671 22.1397 21.75 21.9489 21.75 21.75V15.75C21.75 15.5511 21.671 15.3603 21.5303 15.2197C21.3897 15.079 21.1989 15 21 15H15Z" fill="black"/>
<path d="M17.25 21H16.5C16.3011 21 16.1103 20.921 15.9697 20.7803C15.829 20.6397 15.75 20.4489 15.75 20.25C15.75 20.0511 15.829 19.8603 15.9697 19.7197C16.1103 19.579 16.3011 19.5 16.5 19.5H17.25C17.4489 19.5 17.6397 19.579 17.7803 19.7197C17.921 19.8603 18 20.0511 18 20.25C18 20.4489 17.921 20.6397 17.7803 20.7803C17.6397 20.921 17.4489 21 17.25 21Z" fill="black"/>
</svg>
