<svg width="17" height="16" viewBox="0 0 17 16" fill="none" xmlns="http://www.w3.org/2000/svg">
<g clip-path="url(#clip0_332_68270)">
<path d="M16.1657 4.28654C15.9816 3.59382 15.4395 3.04814 14.7511 2.86304C13.5033 2.52637 8.5 2.52637 8.5 2.52637C8.5 2.52637 3.49672 2.52637 2.24905 2.86287C1.56055 3.04797 1.0184 3.59365 0.834484 4.28637C0.5 5.54228 0.5 8.16207 0.5 8.16207C0.5 8.16207 0.5 10.782 0.834316 12.0378C1.01823 12.7305 1.56038 13.276 2.24888 13.4613C3.49672 13.7978 8.5 13.7978 8.5 13.7978C8.5 13.7978 13.5035 13.7978 14.7511 13.4613C15.4396 13.276 15.9816 12.7305 16.1657 12.0378C16.5 10.7819 16.5 8.16207 16.5 8.16207C16.5 8.16207 16.5 5.54228 16.1657 4.28654ZM6.86362 10.5407V5.78346L11.0455 8.16224L6.86362 10.5407Z" fill="#B0B0B0"/>
</g>
<defs>
<clipPath id="clip0_332_68270">
<rect width="16" height="16" fill="white" transform="translate(0.5)"/>
</clipPath>
</defs>
</svg>
